<svg width="12" height="12" viewBox="0 0 12 12" fill="none" xmlns="http://www.w3.org/2000/svg">
    <path fill-rule="evenodd" clip-rule="evenodd"
        d="M4.59363 0.9375C4.29526 0.9375 4.00911 1.05603 3.79813 1.267C3.58715 1.47798 3.46863 1.76413 3.46863 2.0625V2.625H2.62488H1.99988C1.68922 2.625 1.43738 2.87684 1.43738 3.1875C1.43738 3.49816 1.68922 3.75 1.99988 3.75H2.10398L2.54663 9.50445C2.57924 9.92835 2.77065 10.3243 3.08259 10.6132C3.39453 10.902 3.80401 11.0625 4.22916 11.0625H7.7706C8.19577 11.0625 8.6052 10.902 8.9172 10.6132C9.22912 10.3243 9.42052 9.92835 9.45315 9.50445L9.8958 3.75H9.9999C10.3105 3.75 10.5624 3.49816 10.5624 3.1875C10.5624 2.87684 10.3105 2.625 9.9999 2.625H9.37485H8.5311V2.0625C8.5311 1.76413 8.4126 1.47798 8.20162 1.267C7.99065 1.05603 7.70452 0.9375 7.40613 0.9375H4.59363ZM7.40613 2.625V2.0625H4.59363V2.625H7.40613ZM4.03113 3.75H3.23231L3.66832 9.41812C3.67919 9.55942 3.74299 9.69142 3.84697 9.78772C3.95095 9.88402 4.08745 9.9375 4.22916 9.9375H7.7706C7.91227 9.9375 8.04877 9.88402 8.1528 9.78772C8.25675 9.69142 8.32057 9.55942 8.33145 9.41812L8.76742 3.75H7.9686H4.03113ZM6.98425 4.875C7.29491 4.875 7.54672 5.12684 7.54672 5.4375V8.25C7.54672 8.56065 7.29491 8.8125 6.98425 8.8125C6.67359 8.8125 6.42175 8.56065 6.42175 8.25V5.4375C6.42175 5.12684 6.67359 4.875 6.98425 4.875ZM5.578 5.4375C5.578 5.12684 5.32616 4.875 5.0155 4.875C4.70484 4.875 4.453 5.12684 4.453 5.4375V8.25C4.453 8.56065 4.70484 8.8125 5.0155 8.8125C5.32616 8.8125 5.578 8.56065 5.578 8.25V5.4375Z"
        fill="black" />
</svg>