<?xml version="1.0" standalone="no"?>
<!DOCTYPE svg PUBLIC "-//W3C//DTD SVG 20010904//EN"
 "http://www.w3.org/TR/2001/REC-SVG-20010904/DTD/svg10.dtd">
<svg version="1.0" xmlns="http://www.w3.org/2000/svg"
 width="880.000000pt" height="687.000000pt" viewBox="0 0 880.000000 687.000000"
 preserveAspectRatio="xMidYMid meet">
<metadata>
Created by potrace 1.16, written by Peter Selinger 2001-2019
</metadata>
<g transform="translate(0.000000,687.000000) scale(0.100000,-0.100000)"
fill="#000000" stroke="none">
<path d="M7192 6460 c-61 -9 -91 -27 -125 -72 -67 -90 -59 -199 20 -280 50
-51 92 -59 356 -61 125 -1 227 -5 227 -8 0 -11 -601 -604 -615 -607 -8 -2 -38
14 -67 35 -97 71 -288 174 -401 217 -190 72 -341 96 -592 96 -213 0 -320 -12
-460 -52 -157 -45 -435 -173 -435 -201 0 -6 68 -78 151 -160 147 -145 152
-149 178 -137 102 49 196 80 316 107 121 26 386 23 520 -7 227 -50 425 -161
601 -335 195 -192 320 -436 358 -698 21 -141 20 -225 -4 -380 -42 -274 -145
-473 -349 -677 -145 -144 -296 -239 -491 -308 -227 -80 -559 -78 -789 4 -221
79 -365 187 -589 439 -30 33 -90 98 -136 145 -45 47 -156 165 -246 264 -91 98
-180 195 -199 215 l-33 36 -144 -148 c-79 -81 -144 -153 -144 -160 0 -7 40
-55 88 -108 48 -53 125 -138 172 -189 444 -489 578 -623 711 -711 181 -121
313 -178 539 -234 140 -35 227 -41 460 -34 275 9 417 45 668 166 166 80 294
173 437 317 262 263 420 570 476 921 17 104 17 408 0 510 -42 260 -138 503
-284 717 -10 16 26 56 293 323 l305 305 6 -200 c6 -183 9 -204 30 -247 14 -27
42 -59 66 -76 38 -27 51 -30 117 -31 68 0 79 2 117 29 23 17 51 41 61 55 32
43 39 180 36 648 -3 481 1 449 -67 520 -18 18 -44 38 -59 44 -33 13 -1001 21
-1080 8z"/>
<path d="M1930 5779 c-232 -14 -404 -64 -629 -181 -321 -166 -568 -418 -729
-743 -78 -156 -112 -262 -154 -480 -15 -77 -15 -441 0 -520 42 -218 80 -334
169 -510 137 -270 374 -519 647 -680 167 -98 378 -173 589 -209 l37 -7 0 -399
0 -400 -187 -1 c-277 -1 -350 -9 -404 -45 -57 -38 -79 -82 -79 -160 0 -118 21
-157 110 -198 41 -19 68 -21 303 -24 l257 -4 0 -191 c0 -231 9 -297 49 -352
73 -101 225 -115 312 -30 66 64 69 76 69 333 0 200 2 231 16 236 9 3 79 6 157
7 78 0 199 4 268 8 113 6 130 9 166 33 111 73 110 254 0 342 l-39 31 -246 7
c-136 3 -264 6 -285 7 l-37 1 2 397 3 397 30 8 c17 4 79 19 139 33 59 14 131
35 160 46 159 62 319 138 346 166 13 13 9 20 -40 61 -30 25 -101 93 -157 151
l-103 104 -62 -26 c-381 -161 -752 -154 -1099 21 -290 146 -513 410 -626 739
l-36 108 -5 213 c-4 236 3 300 49 432 131 372 398 649 749 778 170 63 248 77
435 77 152 0 181 -3 277 -28 265 -67 427 -157 599 -334 84 -85 300 -324 519
-573 36 -41 103 -116 149 -168 l84 -94 149 149 c81 81 148 152 148 158 0 5
-73 91 -162 190 -88 99 -227 257 -308 350 -210 244 -388 421 -490 488 -175
115 -379 204 -590 257 -92 24 -368 39 -520 29z"/>
<path d="M3815 5774 c-130 -13 -209 -33 -385 -97 -103 -37 -285 -130 -285
-145 0 -17 298 -313 310 -308 79 36 236 91 302 106 124 29 450 29 565 0 483
-124 855 -519 938 -998 48 -277 11 -521 -121 -785 -32 -66 -59 -127 -59 -137
0 -31 153 -189 249 -259 43 -30 45 -31 64 -14 48 43 163 256 217 404 80 218
106 395 96 644 -8 203 -32 330 -96 505 -198 540 -653 934 -1230 1067 -63 14
-468 26 -565 17z"/>
<path d="M2667 5088 c-84 -112 -187 -315 -231 -457 -56 -181 -71 -288 -71
-516 0 -179 3 -227 23 -322 49 -243 141 -458 279 -650 238 -333 564 -552 978
-658 160 -41 284 -50 485 -37 233 14 385 49 585 135 78 33 225 115 225 125 0
4 -69 76 -153 160 l-153 153 -70 -31 c-173 -79 -293 -107 -494 -117 -96 -4
-148 -2 -220 11 -430 77 -768 331 -945 711 -91 193 -123 371 -111 610 7 149
34 267 87 382 10 24 19 46 19 49 0 3 23 46 50 95 28 49 50 95 50 102 0 31
-216 239 -287 276 -19 10 -25 7 -46 -21z"/>
<path d="M4369 4738 c-640 -658 -745 -767 -1025 -1063 -260 -274 -249 -260
-231 -289 43 -66 260 -256 291 -256 7 0 46 35 86 78 41 42 149 154 240 247 91
94 262 271 380 395 211 221 632 659 800 833 47 48 87 95 88 103 5 21 -260 284
-286 284 -12 0 -136 -120 -343 -332z"/>
</g>
</svg>
