<svg width="111" height="100" viewBox="0 0 111 100" fill="none" xmlns="http://www.w3.org/2000/svg">
    <path
        d="M101.348 23.8095H86.0491L77.2174 14.2857H48.2609V23.8095H72.9704L81.8022 33.3333H101.348V90.4762H24.1304V47.619H14.4783V90.4762C14.4783 95.7143 18.8217 100 24.1304 100H101.348C106.657 100 111 95.7143 111 90.4762V33.3333C111 28.0952 106.657 23.8095 101.348 23.8095ZM38.6087 61.9048C38.6087 75.0476 49.4191 85.7143 62.7391 85.7143C76.0591 85.7143 86.8696 75.0476 86.8696 61.9048C86.8696 48.7619 76.0591 38.0952 62.7391 38.0952C49.4191 38.0952 38.6087 48.7619 38.6087 61.9048ZM62.7391 47.619C70.7022 47.619 77.2174 54.0476 77.2174 61.9048C77.2174 69.7619 70.7022 76.1905 62.7391 76.1905C54.7761 76.1905 48.2609 69.7619 48.2609 61.9048C48.2609 54.0476 54.7761 47.619 62.7391 47.619ZM24.1304 23.8095H38.6087V14.2857H24.1304V0H14.4783V14.2857H0V23.8095H14.4783V38.0952H24.1304V23.8095Z"
        fill="#000" />
</svg>