<svg width="474" height="471" viewBox="0 0 474 471" fill="none" xmlns="http://www.w3.org/2000/svg">
    <path
        d="M191.601 23.39L184.601 19C170.901 10.6 153.801 5.72001 139.101 10.3C123.301 15.22 110.701 27.39 104.101 45.67L94.7007 40.83C78.5007 32.49 70.0207 32.36 62.9907 35.52C57.3807 38.03 51.5307 44.07 44.9007 52.89L127.301 116.6C140.201 120.8 159.101 120.7 178.001 115.8C197.001 110.9 215.901 101.3 229.701 88.4L260.801 11.5C233.401 -10.15 208.401 2.39001 191.601 23.39ZM244.701 99.9C227.701 117.1 202.401 128.7 182.701 133.9C175.801 135.7 168.901 137 162.201 137.7C158.501 143.8 155.401 150 153.001 156.2C157.801 180.6 166.801 200.6 180.301 217L165.901 229C157.601 219 150.201 208.2 144.601 196.2C143.701 219.4 148.901 243.4 157.401 268.4L139.701 274.4C124.101 228.8 118.801 182.1 140.701 138.1C133.301 137.5 126.301 136.1 119.801 133.8L119.501 133.7C115.201 137.8 111.101 142.1 107.201 146.6C75.6307 183.2 58.2407 231.9 67.3407 269.8C72.2107 290.1 80.9407 309.3 93.5007 325.7C111.901 325.3 129.301 325.7 145.101 331.7C152.601 330.9 160.301 330.4 168.301 330.4C196.801 330.4 222.601 335.7 242.101 344.9C249.701 348.5 256.601 352.8 262.101 357.7C262.101 352.4 262.901 346.7 264.501 342.5C255.601 334.1 250.001 323.9 250.001 312.3C250.001 296.2 260.701 282.9 276.201 273.3C276.201 268.7 277.101 264.3 278.701 260.1C268.601 251.4 262.101 240.6 262.101 228C262.101 220.1 264.701 212.9 269.101 206.4C264.701 200 262.101 192.8 262.101 184.9C262.101 181 262.701 177.4 263.801 173.9C254.101 165.3 248.001 154.7 248.001 142.5C248.001 130.4 254.001 119.9 263.601 111.4C257.701 106.8 251.401 102.9 244.701 99.9ZM356.101 102.2C330.101 102.2 306.601 107.7 290.501 115.8C274.301 123.9 266.701 133.9 266.701 142.5C266.701 151.2 274.301 161.2 290.501 169.3C306.601 177.4 330.101 182.9 356.101 182.9C367.401 182.9 378.101 181.8 388.001 180V163C401.901 160.9 413.401 157.1 420.801 152.2V169.8C433.301 166.2 445.301 152.9 445.601 142.5C445.601 133.9 438.001 123.9 421.801 115.8C405.601 107.7 382.201 102.2 356.101 102.2ZM452.601 169.9C449.301 173.4 445.401 176.7 441.001 179.7L441.201 208.7C453.801 201.2 459.701 192.5 459.701 184.9C459.701 180.1 457.401 174.9 452.601 169.9ZM280.801 185.3C281.101 193.9 288.701 203.6 304.601 211.6C320.801 219.8 344.201 225.2 370.301 225.2C386.601 225.2 401.901 223 415.001 219.4L415.701 192.2C398.501 198.2 378.101 201.5 356.101 201.5C327.601 201.5 301.701 195.8 282.101 186C281.601 185.8 281.201 185.5 280.801 185.3ZM282.801 220.1C281.401 222.8 280.801 225.5 280.801 228C280.801 236.7 288.401 246.7 304.601 254.8C320.801 262.9 344.201 268.3 370.301 268.3C383.501 268.3 396.001 267 407.301 264.5V240.5C395.701 242.7 383.301 243.8 370.301 243.8C341.701 243.8 315.801 238.2 296.201 228.3C291.301 225.9 286.801 223.1 282.801 220.1ZM457.701 220.1C451.601 224.4 446.301 227.6 440.101 230.3V252.6C453.401 244.9 459.701 235.9 459.701 228C459.701 225.5 459.101 222.8 457.701 220.1ZM465.201 256.9C463.201 258.9 461.001 260.8 458.601 262.7V295.1C468.901 288.1 473.901 280.4 473.901 273.4C473.901 268.1 471.001 262.4 465.201 256.9ZM295.101 270.9C295.001 271.8 294.901 272.6 294.901 273.4C294.901 282.1 302.501 292 318.701 300.1C334.901 308.3 358.401 313.7 384.401 313.7C399.301 313.7 413.501 311.9 425.801 308.9V279C409.501 284.2 390.601 287 370.301 287C341.701 287 315.801 281.3 296.201 271.5C295.801 271.3 295.501 271.1 295.101 270.9ZM281.501 292.3C272.801 298.8 268.701 305.9 268.701 312.3C268.701 321 276.301 330.9 292.501 339.1C308.701 347.2 332.101 352.6 358.201 352.6C367.701 352.6 376.901 351.9 385.501 350.6V332.4H384.401C355.801 332.4 329.901 326.7 310.301 316.8C297.801 310.6 287.401 302.3 281.501 292.3ZM444.001 322.9C436.101 325.7 427.501 328 418.301 329.5V341.6C420.201 340.8 422.101 340 423.901 339.1C433.701 334.1 440.301 328.5 444.001 322.9ZM453.201 341.1C449.401 344.9 445.001 348.3 440.101 351.4V380C453.401 372.4 459.701 363.4 459.701 355.5C459.701 350.9 457.601 345.9 453.201 341.1ZM104.501 343.9C94.3007 344 83.3007 345.3 71.9007 348C49.0907 353.3 29.4807 363 16.6807 373.7C3.8807 384.3 -1.1193 395.1 0.380699 402.8C1.8807 410.5 9.7807 417.6 25.1807 421.7C40.5307 425.7 62.0007 425.9 84.8007 420.6C94.0007 418.4 102.601 415.6 110.501 412.3V391.6C125.101 385.1 136.001 377.3 140.901 369.7V394.1C153.001 383.7 157.701 373.3 156.301 365.7C154.901 358 146.901 350.9 131.501 346.9C123.801 344.9 114.601 343.8 104.501 343.9ZM169.101 349.1C171.801 353 173.701 357.4 174.701 362.3C175.801 368.3 175.301 374.1 173.501 379.8C183.401 382.4 192.401 385.9 200.201 390.3C204.601 392.7 208.701 395.6 212.301 398.6C221.301 396.5 228.901 393.5 234.301 389.9V410.5C250.401 402.9 257.801 393.6 257.801 386.2C257.801 378.7 250.401 369.4 234.201 361.8C218.101 354.3 194.901 349.2 169.101 349.1ZM280.901 354.1C280.801 354.5 280.801 355 280.801 355.5C280.801 364.2 288.401 374.1 304.601 382.3C320.801 390.4 344.201 395.8 370.301 395.8C383.501 395.8 396.001 394.4 407.301 392V365.1C392.501 369.1 375.801 371.3 358.201 371.3C329.601 371.3 303.701 365.6 284.101 355.8C283.001 355.2 281.901 354.6 280.901 354.1ZM283.701 391.4C281.701 394.7 280.801 397.9 280.801 401C280.801 409.7 288.401 419.6 304.601 427.8C320.801 435.9 344.201 441.3 370.301 441.3C383.501 441.3 396.001 439.9 407.301 437.5V411.1C395.701 413.3 383.301 414.5 370.301 414.5C341.701 414.5 315.801 408.8 296.201 398.9C291.701 396.7 287.501 394.2 283.701 391.4ZM456.801 391.4C451.001 395.3 445.901 398.4 440.101 400.9V425.5C453.401 417.9 459.701 408.9 459.701 401C459.701 397.9 458.801 394.7 456.801 391.4ZM164.201 396.8C160.701 401.2 156.601 405.4 152.001 409.2C136.401 422.3 114.401 432.9 89.0007 438.8C79.9407 440.9 70.9407 442.2 62.3007 442.9C65.5007 448.2 71.1307 453.4 79.3707 458C93.0007 465.7 113.001 470.9 135.201 470.9C145.301 470.9 154.901 469.8 163.701 467.9V447.1C177.501 445 189.101 441.2 196.501 436.3V454.7C206.501 447.7 211.301 439.8 211.301 432.3C211.301 423.6 204.801 414.3 191.101 406.6C183.701 402.5 174.501 399.1 164.201 396.8Z"
        fill="#000" />
</svg>