<svg width="96" height="94" viewBox="0 0 96 94" fill="none" xmlns="http://www.w3.org/2000/svg">
    <path
        d="M52.3874 94V83.5556H57.6262C61.7299 83.5556 65.3743 82.7513 68.5594 81.1429C71.7481 79.531 73.3424 77.7241 73.3424 75.7222C73.3424 74.5037 72.7749 73.3722 71.6398 72.3278C70.5048 71.2833 68.9332 70.3259 66.925 69.4556L74.6521 61.7528C77.4461 63.4065 79.6726 65.3648 81.3315 67.6278C82.9904 69.8907 83.8199 72.5889 83.8199 75.7222C83.8199 81.4667 81.0696 85.9491 75.5689 89.1694C70.0682 92.3898 64.0873 94 57.6262 94H52.3874ZM8.25102 54.05C5.71896 52.5704 3.71078 50.8505 2.22647 48.8904C0.742155 46.9339 0 44.563 0 41.7778C0 38.1222 1.35334 35.0533 4.06003 32.571C6.76671 30.0922 11.6126 27.3296 18.5975 24.2833C24.0982 21.7593 27.6117 19.9959 29.1379 18.9932C30.6676 17.994 31.4325 16.8852 31.4325 15.6667C31.4325 14.2741 30.5803 13.0556 28.876 12.0111C27.1751 10.9667 24.5348 10.4444 20.955 10.4444C17.899 10.4444 15.3879 11.0102 13.4217 12.1417C11.4589 13.2731 10.4775 14.4481 10.4775 15.6667H0C0 11.4889 1.92087 7.83333 5.76262 4.7C9.60437 1.56667 14.6685 0 20.955 0C27.2415 0 32.3056 1.41348 36.1473 4.24044C39.9891 7.07089 41.91 10.8796 41.91 15.6667C41.91 19.0611 40.6439 22.1074 38.1119 24.8056C35.5798 27.5037 30.472 30.5065 22.7885 33.8139C17.7244 35.9898 14.4065 37.6 12.8349 38.6444C11.2633 39.6889 10.4775 40.7333 10.4775 41.7778C10.4775 42.5611 10.9787 43.3236 11.981 44.0651C12.9868 44.8032 14.3629 45.5204 16.1091 46.2167L8.25102 54.05ZM83.0341 38.6444L60.7694 16.45L73.7353 3.525L96 25.7194L83.0341 38.6444ZM15.7162 83.5556H23.0505L60.7694 45.9556L53.4352 38.6444L15.7162 76.2444V83.5556ZM5.23874 94V71.8056L53.4352 23.7611L75.6999 45.9556L27.5034 94H5.23874ZM53.4352 38.6444L60.7694 45.9556L53.4352 38.6444Z"
        fill="#000" />
</svg>