<svg width="197" height="294" viewBox="0 0 197 294" fill="none" xmlns="http://www.w3.org/2000/svg">
<path d="M98.5 0.166748C124.425 0.166748 149.288 10.4654 167.62 28.7971C185.951 47.1287 196.25 71.9918 196.25 97.9167C196.25 146.303 161.06 186.543 114.792 194.363V228.25H147.375V260.833H114.792V293.417H82.2083V260.833H49.625V228.25H82.2083V194.363C35.94 186.543 0.75 146.303 0.75 97.9167C0.75 71.9918 11.0486 47.1287 29.3803 28.7971C47.712 10.4654 72.5751 0.166748 98.5 0.166748ZM98.5 32.7501C81.2167 32.7501 64.6413 39.6158 52.4202 51.837C40.1991 64.0581 33.3333 80.6335 33.3333 97.9167C33.3333 115.2 40.1991 131.775 52.4202 143.997C64.6413 156.218 81.2167 163.083 98.5 163.083C115.783 163.083 132.359 156.218 144.58 143.997C156.801 131.775 163.667 115.2 163.667 97.9167C163.667 80.6335 156.801 64.0581 144.58 51.837C132.359 39.6158 115.783 32.7501 98.5 32.7501Z" />
</svg>
