<svg width="59" height="58" viewBox="0 0 59 58" fill="none" xmlns="http://www.w3.org/2000/svg">
    <path
        d="M25.449 58C24.4219 58 23.5616 57.652 22.868 56.956C22.172 56.2624 21.824 55.4021 21.824 54.375V32.625L0.799006 5.8C-0.107244 4.59167 -0.242578 3.32292 0.393006 1.99375C1.02617 0.664584 2.12817 0 3.69901 0H54.449C56.0198 0 57.123 0.664584 57.7586 1.99375C58.3918 3.32292 58.2553 4.59167 57.349 5.8L36.324 32.625V54.375C36.324 55.4021 35.9772 56.2624 35.2836 56.956C34.5876 57.652 33.7261 58 32.699 58H25.449ZM29.074 30.0875L47.0178 7.25H11.1303L29.074 30.0875Z"
        fill="#000" />
</svg>