<svg width="429" height="407" viewBox="0 0 429 407" fill="none" xmlns="http://www.w3.org/2000/svg">
    <path
        d="M386.833 304.958C398.467 304.958 408.275 309.017 416.256 317.133C424.237 325.25 428.161 334.72 428.025 345.542L265.083 406.417L123.041 365.833V183.208H162.61L310.131 237.793C320.682 241.987 325.958 249.562 325.958 260.52C325.958 266.878 323.658 272.424 319.059 277.159C314.46 281.894 308.643 284.396 301.608 284.667H244.791L209.281 271.071L202.585 290.145L244.791 304.958H386.833ZM305.666 25.5421C320.006 8.90296 338.268 0.583374 360.454 0.583374C378.852 0.583374 394.409 7.34726 407.125 20.875C419.841 34.4028 426.605 49.9598 427.417 67.5459C427.417 81.4795 420.653 98.1187 407.125 117.463C393.597 136.808 380.272 152.974 367.15 165.96C354.028 178.947 333.534 198.224 305.666 223.792C277.529 198.224 256.831 178.947 243.574 165.96C230.317 152.974 216.992 136.808 203.599 117.463C190.207 98.1187 183.646 81.4795 183.916 67.5459C183.916 49.1481 190.477 33.5912 203.599 20.875C216.721 8.15893 232.549 1.39504 251.082 0.583374C272.726 0.583374 290.921 8.90296 305.666 25.5421ZM0.966797 183.208H82.4581V406.417H0.966797V183.208Z"
        fill="#000" />
</svg>