<svg width="436" height="480" viewBox="0 0 436 480" fill="none" xmlns="http://www.w3.org/2000/svg">
    <path
        d="M22.25 131.25C16.0875 131.25 10.9255 129.169 6.764 125.008C2.588 120.832 0.5 115.662 0.5 109.5V38.8125C0.5 34.1 2.04425 30.1995 5.13275 27.111C8.20675 24.037 12.1 22.5 16.8125 22.5C21.525 22.5 25.4255 24.037 28.514 27.111C31.588 30.1995 33.125 34.1 33.125 38.8125V66C59.225 44.6125 88.0437 28.387 119.581 17.3235C151.119 6.2745 183.925 0.75 218 0.75C252.075 0.75 284.881 6.2745 316.419 17.3235C347.956 28.387 376.775 44.6125 402.875 66V38.8125C402.875 34.1 404.412 30.1995 407.486 27.111C410.574 24.037 414.475 22.5 419.188 22.5C423.9 22.5 427.801 24.037 430.889 27.111C433.963 30.1995 435.5 34.1 435.5 38.8125V109.5C435.5 115.662 433.412 120.832 429.236 125.008C425.074 129.169 419.913 131.25 413.75 131.25H343.062C338.35 131.25 334.449 129.706 331.361 126.617C328.287 123.543 326.75 119.65 326.75 114.938C326.75 110.225 328.287 106.332 331.361 103.258C334.449 100.169 338.35 98.625 343.062 98.625H389.825C365.9 77.6 339.256 61.4688 309.894 50.2313C280.531 38.9938 249.9 33.375 218 33.375C186.1 33.375 155.469 38.9938 126.106 50.2313C96.7438 61.4688 70.1 77.6 46.175 98.625H92.9375C97.65 98.625 101.543 100.169 104.617 103.258C107.706 106.332 109.25 110.225 109.25 114.938C109.25 119.65 107.706 123.543 104.617 126.617C101.543 129.706 97.65 131.25 92.9375 131.25H22.25ZM200.6 479.25C194.075 479.25 187.463 478.068 180.764 475.705C174.051 473.356 168.7 470.188 164.713 466.2L80.4313 377.569C76.4438 373.581 74.363 368.506 74.189 362.344C74.0005 356.181 75.5375 350.744 78.8 346.031C81.3375 342.406 84.7812 339.774 89.1312 338.136C93.4812 336.512 98.375 336.425 103.812 337.875L174.5 354.188V120.375C174.5 111.312 177.675 103.613 184.026 97.2765C190.363 90.9255 198.062 87.75 207.125 87.75C216.188 87.75 223.887 90.9255 230.224 97.2765C236.575 103.613 239.75 111.312 239.75 120.375V250.875H259.325C262.225 250.875 265.488 251.238 269.113 251.963C272.738 252.688 276 253.775 278.9 255.225L368.075 299.812C376.413 303.8 382.756 310.057 387.106 318.583C391.456 327.094 392.906 335.881 391.456 344.944L377.863 441.731C376.05 452.606 371.156 461.574 363.181 468.636C355.206 475.712 345.781 479.25 334.906 479.25H200.6Z"
        fill="#000" />
</svg>