<?xml version="1.0" standalone="no"?>
<!DOCTYPE svg PUBLIC "-//W3C//DTD SVG 20010904//EN"
 "http://www.w3.org/TR/2001/REC-SVG-20010904/DTD/svg10.dtd">
<svg version="1.0" xmlns="http://www.w3.org/2000/svg"
 width="728.000000pt" height="595.000000pt" viewBox="0 0 728.000000 595.000000"
 preserveAspectRatio="xMidYMid meet">
<metadata>
Created by potrace 1.16, written by Peter Selinger 2001-2019
</metadata>
<g transform="translate(0.000000,595.000000) scale(0.100000,-0.100000)"
fill="#000000" stroke="none">
<path d="M4994 5770 l1 -180 355 0 355 0 -511 -511 -512 -512 -68 46 c-302
200 -691 267 -1037 178 -179 -45 -339 -121 -471 -220 l-63 -48 -101 62 c-124
76 -273 136 -412 166 -87 19 -135 23 -285 23 -161 0 -191 -3 -285 -26 -272
-68 -486 -191 -666 -381 -226 -239 -346 -526 -361 -862 -9 -224 33 -420 137
-630 182 -369 533 -638 932 -715 l58 -11 0 -425 0 -424 -470 0 -470 0 0 -190
0 -190 470 0 470 0 0 -460 0 -460 190 0 190 0 0 460 0 460 474 0 474 0 1 190
1 190 -475 0 -475 0 0 423 0 423 83 18 c175 39 359 121 502 224 l80 57 85 -53
c213 -134 398 -190 660 -199 118 -4 178 -1 250 11 294 51 537 177 742 387 241
247 369 560 371 909 2 261 -69 506 -207 719 -25 40 -46 75 -46 80 0 4 226 234
503 510 l502 502 3 -345 2 -346 190 0 190 0 0 665 0 665 -678 0 -679 0 1 -180z
m-841 -1354 c159 -47 276 -115 396 -230 210 -201 320 -511 281 -792 -44 -317
-219 -568 -502 -723 -205 -112 -523 -134 -744 -52 -70 27 -173 77 -203 100
l-24 18 20 29 c54 77 127 251 162 389 21 79 32 192 32 306 0 260 -69 498 -207
712 -24 37 -44 72 -44 77 0 22 164 115 270 152 102 36 188 48 335 44 115 -3
155 -8 228 -30z m-1659 -45 c96 -25 286 -117 286 -138 0 -8 -8 -27 -18 -41
-78 -115 -155 -336 -178 -512 -41 -310 25 -606 195 -880 l53 -84 -29 -24 c-43
-35 -219 -120 -298 -143 -53 -16 -109 -22 -225 -26 -143 -4 -163 -3 -254 21
-179 46 -321 128 -450 260 -360 366 -353 965 15 1328 112 110 273 201 419 236
47 12 94 23 105 26 50 13 302 -3 379 -23z m603 -493 c68 -139 95 -255 95 -418
1 -144 -21 -253 -73 -370 l-33 -72 -34 68 c-124 246 -134 537 -26 790 15 35
30 64 34 64 3 0 20 -28 37 -62z"/>
</g>
</svg>
