<svg width="661" height="358" viewBox="0 0 661 358" fill="none" xmlns="http://www.w3.org/2000/svg">
<path fill-rule="evenodd" clip-rule="evenodd" d="M559.662 119.312C557.234 119.312 554.905 118.348 553.188 116.631C551.47 114.914 550.506 112.585 550.506 110.156C550.506 107.728 551.47 105.399 553.188 103.682C554.905 101.965 557.234 101 559.662 101H651.225C653.653 101 655.982 101.965 657.699 103.682C659.416 105.399 660.381 107.728 660.381 110.156V201.719C660.381 204.147 659.416 206.476 657.699 208.193C655.982 209.91 653.653 210.875 651.225 210.875C648.796 210.875 646.467 209.91 644.75 208.193C643.033 206.476 642.068 204.147 642.068 201.719V132.259L566.456 207.872C581.322 226.06 588.63 249.265 586.867 272.689C585.104 296.114 574.406 317.964 556.985 333.722C539.564 349.48 516.753 357.94 493.27 357.352C469.787 356.764 447.428 347.173 430.818 330.563C414.208 313.953 404.617 291.594 404.029 268.111C403.441 244.628 411.9 221.817 427.658 204.396C443.416 186.975 465.267 176.277 488.691 174.514C512.116 172.751 535.321 180.059 553.509 194.925L629.121 119.312H559.662ZM495.568 192.562C476.141 192.562 457.51 200.28 443.773 214.017C430.036 227.754 422.318 246.385 422.318 265.812C422.318 285.24 430.036 303.871 443.773 317.608C457.51 331.345 476.141 339.062 495.568 339.062C514.995 339.062 533.627 331.345 547.364 317.608C561.101 303.871 568.818 285.24 568.818 265.812C568.818 246.385 561.101 227.754 547.364 214.017C533.627 200.28 514.995 192.562 495.568 192.562Z" fill="#111111"/>
<path fill-rule="evenodd" clip-rule="evenodd" d="M466.662 18.3125C464.234 18.3125 461.905 17.3478 460.188 15.6307C458.47 13.9136 457.506 11.5846 457.506 9.15625C457.506 6.72786 458.47 4.39893 460.188 2.6818C461.905 0.964673 464.234 0 466.662 0H558.225C560.653 0 562.982 0.964673 564.699 2.6818C566.416 4.39893 567.381 6.72786 567.381 9.15625V100.719C567.381 103.147 566.416 105.476 564.699 107.193C562.982 108.91 560.653 109.875 558.225 109.875C555.796 109.875 553.467 108.91 551.75 107.193C550.033 105.476 549.068 103.147 549.068 100.719V31.2594L473.456 106.872C488.322 125.06 495.63 148.265 493.867 171.689C492.104 195.114 481.406 216.964 463.985 232.722C446.564 248.48 423.753 256.94 400.27 256.352C376.787 255.764 354.428 246.173 337.818 229.563C321.208 212.953 311.617 190.594 311.029 167.111C310.441 143.628 318.9 120.817 334.658 103.396C350.416 85.9749 372.267 75.2768 395.691 73.514C419.116 71.7512 442.321 79.0586 460.509 93.9248L536.121 18.3125H466.662ZM402.568 91.5625C383.141 91.5625 364.51 99.2799 350.773 113.017C337.036 126.754 329.318 145.385 329.318 164.812C329.318 184.24 337.036 202.871 350.773 216.608C364.51 230.345 383.141 238.062 402.568 238.062C421.995 238.062 440.627 230.345 454.364 216.608C468.101 202.871 475.818 184.24 475.818 164.812C475.818 145.385 468.101 126.754 454.364 113.017C440.627 99.2799 421.995 91.5625 402.568 91.5625Z" fill="#111111"/>
<path d="M97.75 64C123.675 64 148.538 74.2986 166.87 92.6303C185.201 110.962 195.5 135.825 195.5 161.75C195.5 210.136 160.31 250.377 114.042 258.197V292.083H146.625V324.667H114.042V357.25H81.4583V324.667H48.875V292.083H81.4583V258.197C35.19 250.377 0 210.136 0 161.75C0 135.825 10.2986 110.962 28.6303 92.6303C46.962 74.2986 71.8251 64 97.75 64ZM97.75 96.5833C80.4667 96.5833 63.8913 103.449 51.6702 115.67C39.4491 127.891 32.5833 144.467 32.5833 161.75C32.5833 179.033 39.4491 195.609 51.6702 207.83C63.8913 220.051 80.4667 226.917 97.75 226.917C115.033 226.917 131.609 220.051 143.83 207.83C156.051 195.609 162.917 179.033 162.917 161.75C162.917 144.467 156.051 127.891 143.83 115.67C131.609 103.449 115.033 96.5833 97.75 96.5833Z" fill="#111111"/>
<path d="M212.75 64C238.675 64 263.538 74.2986 281.87 92.6303C300.201 110.962 310.5 135.825 310.5 161.75C310.5 210.136 275.31 250.377 229.042 258.197V292.083H261.625V324.667H229.042V357.25H196.458V324.667H163.875V292.083H196.458V258.197C150.19 250.377 115 210.136 115 161.75C115 135.825 125.299 110.962 143.63 92.6303C161.962 74.2986 186.825 64 212.75 64ZM212.75 96.5833C195.467 96.5833 178.891 103.449 166.67 115.67C154.449 127.891 147.583 144.467 147.583 161.75C147.583 179.033 154.449 195.609 166.67 207.83C178.891 220.051 195.467 226.917 212.75 226.917C230.033 226.917 246.609 220.051 258.83 207.83C271.051 195.609 277.917 179.033 277.917 161.75C277.917 144.467 271.051 127.891 258.83 115.67C246.609 103.449 230.033 96.5833 212.75 96.5833Z" fill="#111111"/>
</svg>
