<svg width="626" height="626" viewBox="0 0 626 626" fill="none" xmlns="http://www.w3.org/2000/svg">
    <path
        d="M124.93 222.56C122.047 217.848 123.53 211.693 128.241 208.811L298.421 104.699C303.132 101.817 309.288 103.3 312.17 108.011L362.064 189.568C363.448 191.83 363.876 194.55 363.255 197.128L342.337 283.975C341.043 289.345 344.347 294.746 349.717 296.039L436.564 316.958C439.142 317.579 441.369 319.199 442.753 321.461L492.647 403.018C495.529 407.729 494.046 413.884 489.335 416.767L319.155 520.878C314.444 523.76 308.289 522.277 305.406 517.566L255.512 436.01C254.128 433.747 253.7 431.028 254.321 428.449L275.24 341.602C276.533 336.233 273.229 330.832 267.859 329.538L181.012 308.619C178.434 307.998 176.208 306.378 174.824 304.116L124.93 222.56ZM416.319 348.354C414.935 346.092 412.709 344.472 410.13 343.851L323.283 322.932C317.914 321.639 312.513 324.943 311.219 330.312L290.3 417.16C289.679 419.738 290.108 422.458 291.492 424.72L317.522 467.268C320.404 471.979 326.559 473.462 331.271 470.58L439.037 404.651C443.748 401.769 445.231 395.613 442.349 390.902L416.319 348.354ZM294.293 302.645C299.663 303.939 305.064 300.634 306.357 295.265L327.276 208.418C327.897 205.839 327.468 203.12 326.084 200.857L300.054 158.309C297.172 153.598 291.017 152.115 286.306 154.998L178.539 220.926C173.828 223.808 172.345 229.964 175.228 234.675L201.257 277.223C202.641 279.485 204.868 281.105 207.446 281.726L294.293 302.645ZM225.37 246.535C222.574 241.965 224.012 235.993 228.582 233.198L274.446 205.139C279.016 202.344 284.987 203.782 287.783 208.352C289.126 210.547 289.541 213.185 288.939 215.686L280.106 252.356C278.813 257.725 273.412 261.029 268.043 259.736L231.373 250.903C228.872 250.301 226.712 248.729 225.37 246.535Z"
        fill="#fff" />
    <circle cx="313" cy="313" r="303" stroke="#fff" stroke-width="20" />
</svg>