<?xml version="1.0" standalone="no"?>
<!DOCTYPE svg PUBLIC "-//W3C//DTD SVG 20010904//EN" "http://www.w3.org/TR/2001/REC-SVG-20010904/DTD/svg10.dtd">
<svg version="1.0" xmlns="http://www.w3.org/2000/svg" width="840.000000pt" height="806.000000pt"
    viewBox="0 0 840.000000 806.000000" preserveAspectRatio="xMidYMid meet">
    <metadata>
        Created by potrace 1.16, written by Peter Selinger 2001-2019
    </metadata>
    <g transform="translate(0.000000,806.000000) scale(0.100000,-0.100000)" stroke="none">
        <path d="M5696 7618 c-7 -13 -57 -98 -109 -190 l-96 -168 270 0 c148 0 269 -3
269 -8 0 -13 -995 -1002 -1008 -1002 -7 0 -36 17 -65 38 -523 381 -1238 498
-1874 306 -1225 -368 -1865 -1719 -1377 -2902 260 -629 810 -1105 1470 -1272
62 -16 138 -32 169 -35 l55 -7 0 -304 0 -304 -370 0 -370 0 0 -315 0 -315 370
0 370 0 0 -370 0 -370 320 0 320 0 0 370 0 370 370 0 370 0 0 315 0 315 -370
0 -370 0 0 304 0 303 51 7 c159 21 401 102 594 198 657 327 1100 961 1186
1700 17 146 7 464 -19 608 -55 301 -177 604 -339 839 l-52 76 502 503 c276
276 505 502 509 502 5 0 8 -121 8 -269 l0 -269 190 106 189 107 1 578 0 577
-575 0 -575 0 -14 -22z m-1736 -1559 c102 -15 157 -28 273 -66 410 -133 770
-465 937 -864 129 -310 159 -618 90 -944 -53 -258 -181 -508 -357 -705 -238
-264 -524 -428 -879 -502 -155 -32 -431 -32 -584 1 -645 137 -1115 607 -1242
1244 -29 147 -31 422 -4 567 159 834 935 1392 1766 1269z" />
    </g>
</svg>