<svg width="922" height="817" viewBox="0 0 922 817" fill="none" xmlns="http://www.w3.org/2000/svg">
<path d="M845.077 668.348C852.208 627.354 919.933 548.932 900.333 500.807C880.733 452.682 832.587 605.92 814.759 607.754C796.931 609.588 812.987 538.236 837.946 470.51C862.905 402.785 882.505 331.473 837.946 304.742C793.386 278.01 795.159 490.11 784.462 482.979C773.765 475.848 791.593 386.729 779.124 331.473C766.655 276.217 738.13 320.776 738.13 385.06C738.13 449.343 757.73 484.876 743.468 490.172C729.206 495.469 685.45 475.539 686.44 545.429C687.429 615.318 741.696 698.728 722.075 688.031C702.454 677.334 666.819 636.34 673.95 702.293C678.999 748.914 715.17 793.721 735.987 816H831.289C845.819 801.058 874.055 769.565 893.119 732.59C919.933 680.838 837.946 709.363 845.077 668.348Z" fill="#F10065"/>
<path d="M729.206 811.837C711.564 786.548 703.32 755.633 695.076 726.778C690.954 708.229 690.954 687.619 705.381 675.253C719.808 664.947 728.052 683.497 736.296 691.741C742.479 687.619 738.357 681.436 738.357 677.314C734.245 644.497 732.18 611.457 732.174 578.384C732.174 557.774 740.418 541.286 748.662 522.737C752.784 516.553 756.906 510.37 763.09 508.309C769.273 506.248 775.456 508.309 777.517 514.492C781.639 528.92 781.639 543.347 783.7 557.774C787.822 553.652 785.761 547.469 785.761 543.347C794.005 483.577 787.822 425.868 806.371 368.16C808.432 364.037 814.615 359.915 818.737 361.976C833.164 364.037 833.164 382.587 833.164 394.953C841.409 454.723 822.859 512.431 816.676 572.201C816.676 576.323 814.615 580.445 818.737 584.567C820.798 570.14 829.042 555.713 833.164 541.286C835.226 535.103 839.348 526.859 845.531 522.737C849.653 520.676 853.775 522.737 857.897 526.859C866.141 539.225 868.202 551.591 866.141 566.018C859.958 601.056 847.592 629.91 833.164 660.825L826.981 679.375C824.92 691.741 816.676 706.168 824.92 716.473C839.348 714.412 843.47 697.924 855.836 689.68C868.202 681.436 872.324 691.741 874.385 699.985C882.629 741.206 868.202 778.304 847.427 811.754" stroke="#263238" stroke-linecap="round" stroke-linejoin="round"/>
<path d="M786.934 803.964C786.934 803.964 782.132 707.652 794.168 619.79" stroke="#263238" stroke-linecap="round" stroke-linejoin="round"/>
<path d="M747.22 742.566L786.936 785.909L821.85 755.797" stroke="#263238" stroke-linecap="round" stroke-linejoin="round"/>
<path d="M776.095 634.238L786.936 689.597L818.243 634.238" stroke="#263238" stroke-linecap="round" stroke-linejoin="round"/>
<path d="M795.365 605.342L802.579 553.59" stroke="#263238" stroke-linecap="round" stroke-linejoin="round"/>
<path d="M224.851 183.306H95.0479V345.571H224.851V183.306Z" stroke="#263238" stroke-linecap="round" stroke-linejoin="round"/>
<path d="M387.115 183.306H257.312V345.571H387.115V183.306Z" stroke="#263238" stroke-linecap="round" stroke-linejoin="round"/>
<path d="M224.851 372.117H95.0479V534.381H224.851V372.117Z" stroke="#263238" stroke-linecap="round" stroke-linejoin="round"/>
<path d="M387.115 372.117H257.312V534.381H387.115V372.117Z" stroke="#263238" stroke-linecap="round" stroke-linejoin="round"/>
<path d="M224.851 560.927H95.0479V723.192H224.851V560.927Z" stroke="#263238" stroke-linecap="round" stroke-linejoin="round"/>
<path d="M387.115 560.927H257.312V723.192H387.115V560.927Z" stroke="#263238" stroke-linecap="round" stroke-linejoin="round"/>
<path d="M242.556 15.147C204.216 15.147 167.446 30.3774 140.336 57.4877C113.226 84.5981 97.9951 121.368 97.9951 159.707H387.116C387.116 121.368 371.886 84.5981 344.775 57.4877C317.665 30.3774 280.895 15.147 242.556 15.147Z" stroke="#263238" stroke-linecap="round" stroke-linejoin="round"/>
<path d="M429.511 92.6412C429.511 92.6412 429.511 61.7258 376.44 67.9089C323.368 74.092 301.13 120.98 285.095 130.853C269.06 140.725 239.423 149.402 238.186 164.179C236.949 178.957 250.552 185.161 236.949 196.27C223.347 207.379 202.489 217.313 207.333 232.132C212.176 246.95 225.882 261.749 219.699 271.641C213.516 281.534 196.244 291.386 212.279 302.557C228.314 313.728 235.733 316.139 235.733 330.937C235.733 345.735 229.55 355.67 244.39 360.575C259.229 365.48 267.824 355.628 276.48 374.136C285.136 392.644 293.751 397.591 308.57 393.881C323.389 390.171 344.35 384.009 351.852 388.955C359.354 393.902 382.767 407.504 392.578 400.064C402.388 392.624 411.127 381.515 425.904 387.698C440.682 393.881 453.069 402.517 459.231 391.408C465.394 380.299 459.231 377.826 482.686 372.859C506.14 367.891 514.776 369.169 514.776 349.425C514.776 329.68 513.539 324.692 524.648 316.098C535.757 307.503 545.63 311.151 541.94 290.17C538.251 269.189 530.831 264.242 534.521 243.261C538.21 222.28 528.338 214.881 520.938 208.698C513.539 202.515 504.904 191.426 507.377 180.317C509.85 169.208 528.358 167.951 509.829 148.227C491.301 128.503 482.686 134.645 478.914 119.826C475.142 105.007 462.838 72.8966 429.511 92.6412Z" fill="#263238" stroke="#263238" stroke-linecap="round" stroke-linejoin="round"/>
<path d="M382.129 129.802C374.524 141.838 368.65 155.42 356.407 166.9C338.724 183.388 293.422 197.815 291.217 213.314C289.012 228.813 296.74 237.614 281.283 250.866C265.825 264.119 241.505 267.355 241.505 280.71C241.505 294.065 248.121 298.394 244.823 308.328" stroke="#616161" stroke-miterlimit="10"/>
<path d="M414.98 114.962C414.98 114.962 409.456 100.535 393.978 114.962C392.782 116.075 391.649 117.229 390.577 118.404" stroke="#616161" stroke-miterlimit="10"/>
<path d="M290.166 178.112C276.563 181.41 265.825 183.78 264.712 193.426C262.486 212.201 265.805 224.341 252.552 229.885C239.3 235.429 221.637 244.312 227.14 255.298C232.643 266.283 233.756 269.725 232.663 274.074" stroke="#616161" stroke-miterlimit="10"/>
<path d="M412.713 97.2785C412.713 97.2785 381.798 77.4102 365.31 95.0732C348.822 112.736 356.468 134.851 331.056 159.171C324.601 165.181 316.984 169.803 308.673 172.753" stroke="#616161" stroke-miterlimit="10"/>
<path d="M520.237 253.978C522.092 256.858 524.653 259.213 527.678 260.821" stroke="#616161" stroke-miterlimit="10"/>
<path d="M434.871 124.958C434.871 124.958 462.489 116.116 469.105 131.574C475.721 147.032 479.06 174.67 491.22 179.101C503.38 183.533 508.883 190.149 508.883 214.448C508.868 222.28 510.036 230.069 512.345 237.552" stroke="#616161" stroke-miterlimit="10"/>
<path d="M255.869 321.58C264.711 307.153 276.85 312.759 277.963 297.281C279.076 281.802 270.235 277.392 279.056 267.457C287.877 257.523 302.263 253.03 302.263 253.03" stroke="#616161" stroke-miterlimit="10"/>
<path d="M268.009 352.536C263.927 349.156 260.382 345.174 257.498 340.727" stroke="#616161" stroke-miterlimit="10"/>
<path d="M573.926 815.938C573.926 815.938 577.615 765.34 555.377 714.721C533.138 664.102 528.13 660.454 528.13 645.636C528.13 630.817 543.011 613.525 545.484 580.198C547.957 546.871 546.721 530.733 546.721 530.733C546.721 530.733 599.792 614.658 636.829 619.605C673.865 624.551 696.083 589.988 682.501 543.079C668.919 496.17 609.664 457.917 586.23 427.043C562.797 396.169 509.684 396.128 482.54 396.128C455.396 396.128 441.814 386.255 436.868 367.747C431.921 349.239 431.942 312.099 431.942 312.099C431.942 312.099 399.831 331.844 345.523 309.626C345.523 309.626 350.47 377.516 344.286 387.389C338.103 397.261 329.53 407.319 292.493 407.319C255.456 407.319 224.603 414.739 207.331 432.051C190.06 449.364 118.46 518.45 99.9517 545.614C81.4436 572.778 91.2953 602.395 113.513 613.504C135.731 624.613 157.949 614.72 174.004 599.922C190.06 585.124 240.658 538.194 240.658 538.194C240.658 538.194 240.658 566.595 254.24 607.321C267.822 648.047 278.972 643.121 269.038 672.738C259.104 702.355 239.421 711.011 233.259 749.264C229.568 771.283 227.912 793.595 228.312 815.918" fill="#F10065"/>
<mask id="mask0_387_470" style="mask-type:luminance" maskUnits="userSpaceOnUse" x="90" y="309" width="597" height="507">
<path d="M573.926 815.938C573.926 815.938 577.615 765.34 555.377 714.721C533.138 664.102 528.13 660.454 528.13 645.636C528.13 630.817 543.011 613.525 545.484 580.198C547.957 546.871 546.721 530.733 546.721 530.733C546.721 530.733 599.792 614.658 636.829 619.605C673.865 624.551 696.083 589.988 682.501 543.079C668.919 496.17 609.664 457.917 586.23 427.043C562.797 396.169 509.684 396.128 482.54 396.128C455.396 396.128 441.814 386.255 436.868 367.747C431.921 349.239 431.942 312.099 431.942 312.099C431.942 312.099 399.831 331.844 345.523 309.626C345.523 309.626 350.47 377.516 344.286 387.389C338.103 397.261 329.53 407.319 292.493 407.319C255.456 407.319 224.603 414.739 207.331 432.051C190.06 449.364 118.46 518.45 99.9517 545.614C81.4436 572.778 91.2953 602.395 113.513 613.504C135.731 624.613 157.949 614.72 174.004 599.922C190.06 585.124 240.658 538.194 240.658 538.194C240.658 538.194 240.658 566.595 254.24 607.321C267.822 648.047 278.972 643.121 269.038 672.738C259.104 702.355 239.421 711.011 233.259 749.264C229.568 771.283 227.912 793.595 228.312 815.918" fill="white"/>
</mask>
<g mask="url(#mask0_387_470)">
<g opacity="0.2">
<path d="M492.93 434.834C492.085 434.834 488.994 436.895 492.93 442.892C496.867 436.936 493.775 434.834 492.93 434.834Z" fill="black"/>
<path d="M591.859 434.834C591.014 434.834 587.923 436.895 591.859 442.892C595.796 436.936 592.704 434.834 591.859 434.834Z" fill="black"/>
<path d="M591.859 484.298C591.014 484.298 587.923 486.359 591.859 492.357C595.796 486.401 592.704 484.298 591.859 484.298Z" fill="black"/>
<path d="M492.93 484.298C492.085 484.298 488.994 486.359 492.93 492.357C496.867 486.401 493.775 484.298 492.93 484.298Z" fill="black"/>
<path d="M542.394 459.566C541.549 459.566 538.458 461.627 542.394 467.625C546.331 461.668 543.239 459.566 542.394 459.566Z" fill="black"/>
<path d="M542.394 410.101C541.549 410.101 538.458 412.162 542.394 418.16C546.331 412.204 543.239 410.101 542.394 410.101Z" fill="black"/>
<path d="M495.155 444.129C502.286 444.521 502.534 440.79 502.122 440.007C501.709 439.224 498.226 437.719 495.155 444.129Z" fill="black"/>
<path d="M600.123 442.707L597.382 439.883C595.878 440.951 594.706 442.423 594.002 444.129C596.15 444.482 598.351 443.97 600.123 442.707Z" fill="black"/>
<path d="M544.619 468.861C551.75 469.253 551.998 465.523 551.585 464.739C551.173 463.956 547.69 462.452 544.619 468.861Z" fill="black"/>
<path d="M544.619 419.397C551.75 419.788 551.998 416.058 551.585 415.275C551.173 414.491 547.69 412.987 544.619 419.397Z" fill="black"/>
<path d="M582.751 440.069C582.339 440.79 582.607 444.521 589.717 444.191C586.564 437.719 583.184 439.327 582.751 440.069Z" fill="black"/>
<path d="M582.75 489.533C582.606 490.057 582.632 490.613 582.825 491.12C583.017 491.628 583.367 492.061 583.822 492.357C585.576 493.462 587.667 493.9 589.717 493.594C589.522 493.168 589.302 492.755 589.057 492.357C586.11 487.411 583.163 488.833 582.75 489.533Z" fill="black"/>
<path d="M533.284 464.801C532.872 465.522 533.14 469.253 540.25 468.923C537.097 462.451 533.717 464.059 533.284 464.801Z" fill="black"/>
<path d="M533.284 415.336C532.872 416.058 533.14 419.788 540.25 419.458C537.097 412.987 533.717 414.594 533.284 415.336Z" fill="black"/>
<path d="M492.93 583.228C492.085 583.228 488.994 585.289 492.93 591.286C496.867 585.33 493.775 583.228 492.93 583.228Z" fill="black"/>
<path d="M591.859 583.228C591.241 583.228 589.468 584.341 590.025 587.205C590.89 588.133 591.756 589.06 592.642 589.967C595.321 585.021 592.642 583.228 591.859 583.228Z" fill="black"/>
<path d="M492.93 632.692C492.085 632.692 488.994 634.753 492.93 640.751C496.867 634.795 493.775 632.692 492.93 632.692Z" fill="black"/>
<path d="M641.323 607.96C640.478 607.96 637.386 610.021 641.323 616.019C645.26 610.062 642.168 607.96 641.323 607.96Z" fill="black"/>
<path d="M492.93 533.763C492.085 533.763 488.994 535.824 492.93 541.822C496.867 535.865 493.775 533.763 492.93 533.763Z" fill="black"/>
<path d="M591.859 533.763C591.014 533.763 587.923 535.824 591.859 541.822C595.796 535.865 592.704 533.763 591.859 533.763Z" fill="black"/>
<path d="M542.394 558.495C541.549 558.495 538.458 560.557 542.394 566.554C546.331 560.598 543.239 558.495 542.394 558.495Z" fill="black"/>
<path d="M641.323 558.495C640.478 558.495 637.386 560.557 641.323 566.554C645.26 560.598 642.168 558.495 641.323 558.495Z" fill="black"/>
<path d="M542.394 509.031C541.549 509.031 538.458 511.092 542.394 517.089C546.331 511.133 543.239 509.031 542.394 509.031Z" fill="black"/>
<path d="M641.323 509.031C640.478 509.031 637.386 511.092 641.323 517.089C645.26 511.133 642.168 509.031 641.323 509.031Z" fill="black"/>
<path d="M495.155 592.523C502.286 592.914 502.534 589.184 502.122 588.401C501.709 587.618 498.226 586.113 495.155 592.523Z" fill="black"/>
<path d="M594.393 591.781L595.135 592.543C601.132 592.543 601.318 589.143 600.967 588.421C600.617 587.7 597.422 586.257 594.393 591.781Z" fill="black"/>
<path d="M500.473 637.185C499.571 637.167 498.693 637.474 498 638.051C497.58 638.383 497.193 638.756 496.845 639.164C496.431 639.661 496.059 640.192 495.732 640.751C495.738 640.792 495.738 640.833 495.732 640.874C495.547 641.204 495.341 641.575 495.155 641.987C497.205 642.298 499.298 641.859 501.05 640.751C501.196 640.638 501.334 640.514 501.462 640.38C501.668 640.158 501.841 639.908 501.977 639.638C502.178 639.401 502.301 639.108 502.329 638.798C502.356 638.489 502.287 638.178 502.132 637.91C501.976 637.641 501.741 637.427 501.458 637.297C501.176 637.168 500.861 637.128 500.555 637.185H500.473Z" fill="black"/>
<path d="M643.55 617.255C650.66 617.647 650.928 613.916 650.516 613.133C650.104 612.35 646.621 610.845 643.55 617.255Z" fill="black"/>
<path d="M495.155 543.058C502.286 543.45 502.534 539.719 502.122 538.936C501.709 538.153 498.226 536.648 495.155 543.058Z" fill="black"/>
<path d="M600.968 538.998C600.535 538.256 597.155 536.648 594.002 543.12C601.112 543.45 601.38 539.719 600.968 538.998Z" fill="black"/>
<path d="M544.619 567.79C545.216 567.821 545.815 567.821 546.412 567.79C546.412 566.76 546.515 565.729 546.557 564.781C545.776 565.691 545.124 566.704 544.619 567.79Z" fill="black"/>
<path d="M643.55 567.79C650.66 568.182 650.928 564.452 650.516 563.668C650.104 562.885 646.621 561.381 643.55 567.79Z" fill="black"/>
<path d="M544.619 518.326C551.75 518.718 551.998 514.987 551.585 514.204C551.173 513.421 547.69 511.916 544.619 518.326Z" fill="black"/>
<path d="M643.55 518.326C650.66 518.718 650.928 514.987 650.516 514.204C650.104 513.421 646.621 511.916 643.55 518.326Z" fill="black"/>
<path d="M536.973 617.09L538.107 614.02C535.716 611.546 533.614 612.618 533.284 613.195C532.954 613.772 533.058 616.369 536.973 617.09Z" fill="black"/>
<path d="M681.679 588.463C681.525 589.052 681.578 589.677 681.829 590.232C682.081 590.788 682.515 591.24 683.06 591.513C683.493 590.318 683.864 589.081 684.215 587.824C683.775 587.675 683.302 587.656 682.853 587.77C682.403 587.883 681.996 588.124 681.679 588.463Z" fill="black"/>
<path d="M632.213 613.195C631.78 613.916 632.069 617.647 639.18 617.317C636.026 610.845 632.646 612.453 632.213 613.195Z" fill="black"/>
<path d="M582.751 538.998C582.339 539.719 582.607 543.45 589.717 543.12C586.564 536.648 583.184 538.256 582.751 538.998Z" fill="black"/>
<path d="M533.284 563.73C532.872 564.452 533.14 568.182 540.25 567.853C537.097 561.381 533.717 562.988 533.284 563.73Z" fill="black"/>
<path d="M632.213 563.73C631.78 564.452 632.069 568.182 639.18 567.853C636.026 561.381 632.646 562.988 632.213 563.73Z" fill="black"/>
<path d="M533.284 514.266C532.872 514.987 533.14 518.717 540.25 518.388C537.097 511.916 533.717 513.524 533.284 514.266Z" fill="black"/>
<path d="M632.213 514.266C631.78 514.987 632.069 518.717 639.18 518.388C636.026 511.916 632.646 513.524 632.213 514.266Z" fill="black"/>
<path d="M599.897 492.357C600.352 492.061 600.701 491.628 600.894 491.12C601.087 490.612 601.113 490.057 600.968 489.533C600.556 488.832 597.609 487.472 594.661 492.357C594.417 492.755 594.196 493.168 594.002 493.593C596.052 493.904 598.144 493.465 599.897 492.357Z" fill="black"/>
<path d="M500.968 492.357C501.423 492.061 501.773 491.628 501.965 491.12C502.158 490.612 502.184 490.057 502.04 489.533C501.627 488.832 498.68 487.472 495.733 492.357C495.488 492.755 495.268 493.168 495.073 493.593C497.123 493.904 499.216 493.465 500.968 492.357Z" fill="black"/>
<path d="M492.93 731.622C492.085 731.622 488.994 733.683 492.93 739.68C496.867 733.724 493.775 731.622 492.93 731.622Z" fill="black"/>
<path d="M492.93 781.086C492.085 781.086 488.994 783.147 492.93 789.145C496.867 783.189 493.775 781.086 492.93 781.086Z" fill="black"/>
<path d="M542.394 756.354C541.549 756.354 538.458 758.415 542.394 764.413C546.331 758.456 543.239 756.354 542.394 756.354Z" fill="black"/>
<path d="M492.93 682.157C492.085 682.157 488.994 684.218 492.93 690.216C496.867 684.259 493.775 682.157 492.93 682.157Z" fill="black"/>
<path d="M542.394 706.889C541.549 706.889 538.458 708.95 542.394 714.948C546.331 708.992 543.239 706.889 542.394 706.889Z" fill="black"/>
<path d="M495.155 740.917C502.286 741.309 502.534 737.578 502.122 736.795C501.709 736.012 498.226 734.507 495.155 740.917Z" fill="black"/>
<path d="M500.473 785.579H500.04C499.509 785.618 498.994 785.78 498.536 786.054L498 786.424C497.083 787.176 496.314 788.091 495.733 789.124C495.488 789.523 495.268 789.936 495.073 790.361C497.123 790.671 499.216 790.232 500.968 789.124C501.423 788.829 501.773 788.396 501.965 787.888C502.158 787.38 502.184 786.824 502.04 786.301C501.846 786.075 501.606 785.893 501.335 785.768C501.065 785.644 500.771 785.579 500.473 785.579Z" fill="black"/>
<path d="M544.619 765.649C551.75 766.041 551.998 762.31 551.585 761.527C551.173 760.744 547.69 759.239 544.619 765.649Z" fill="black"/>
<path d="M495.155 691.452C502.286 691.844 502.534 688.113 502.122 687.33C501.709 686.547 498.226 685.042 495.155 691.452Z" fill="black"/>
<path d="M544.619 716.185C551.75 716.576 551.998 712.846 551.585 712.063C551.173 711.279 547.69 709.775 544.619 716.185Z" fill="black"/>
<path d="M533.284 761.589C532.872 762.31 533.14 766.041 540.25 765.711C537.097 759.239 533.717 760.847 533.284 761.589Z" fill="black"/>
<path d="M533.284 712.124C532.872 712.846 533.14 716.576 540.25 716.246C537.097 709.775 533.717 711.382 533.284 712.124Z" fill="black"/>
<path d="M542.394 805.819C541.549 805.819 538.458 807.88 542.394 813.877C546.331 807.921 543.239 805.819 542.394 805.819Z" fill="black"/>
<path d="M544.619 815.114C551.75 815.505 551.998 811.775 551.585 810.992C551.173 810.209 547.69 808.704 544.619 815.114Z" fill="black"/>
<path d="M533.284 811.054C532.872 811.775 533.14 815.506 540.25 815.176C537.097 808.704 533.717 810.312 533.284 811.054Z" fill="black"/>
<path d="M394 335.904C393.155 335.904 390.063 337.965 394 343.963C397.936 338.007 394.845 335.904 394 335.904Z" fill="black"/>
<path d="M345.709 311.852C345.709 312.965 345.874 314.511 345.998 316.448C346.389 315.733 346.57 314.922 346.519 314.108C346.468 313.295 346.187 312.512 345.709 311.852Z" fill="black"/>
<path d="M401.544 340.397C400.642 340.379 399.764 340.687 399.071 341.263C398.651 341.596 398.264 341.968 397.917 342.376C397.503 342.874 397.13 343.404 396.804 343.963V344.087C396.618 344.417 396.412 344.787 396.227 345.2C398.276 345.51 400.369 345.071 402.121 343.963C402.268 343.85 402.405 343.726 402.533 343.592C402.739 343.37 402.913 343.12 403.049 342.85C403.194 342.592 403.282 342.306 403.307 342.011C403.332 341.715 403.293 341.418 403.193 341.139C402.992 340.899 402.74 340.707 402.454 340.578C402.168 340.449 401.857 340.388 401.544 340.397Z" fill="black"/>
<path d="M346.763 320.467C353.894 320.859 354.141 317.128 353.729 316.345C353.317 315.562 349.834 314.057 346.763 320.467Z" fill="black"/>
<path d="M296.967 437.122C296.93 436.806 296.839 436.499 296.699 436.215C296.639 436.086 296.57 435.962 296.493 435.844C296.362 435.643 296.202 435.462 296.019 435.308C295.87 435.18 295.704 435.076 295.524 434.999C295.397 434.932 295.255 434.897 295.112 434.897C294.968 434.897 294.827 434.932 294.7 434.999C293.751 435.411 292.206 437.06 293.937 440.893C294.28 441.607 294.673 442.295 295.112 442.954C295.551 442.295 295.943 441.607 296.286 440.893C296.773 439.926 297.04 438.863 297.07 437.781C297.081 437.589 297.081 437.396 297.07 437.204L296.967 437.122Z" fill="black"/>
<path d="M394 434.834C393.155 434.834 390.063 436.895 394 442.892C397.936 436.936 394.845 434.834 394 434.834Z" fill="black"/>
<path d="M394 484.298C393.155 484.298 390.063 486.359 394 492.357C397.936 486.401 394.845 484.298 394 484.298Z" fill="black"/>
<path d="M296.967 486.586C296.93 486.271 296.839 485.964 296.699 485.679C296.639 485.551 296.57 485.427 296.493 485.308C296.362 485.107 296.202 484.927 296.019 484.772C295.87 484.645 295.704 484.54 295.524 484.463C295.397 484.396 295.255 484.362 295.112 484.362C294.968 484.362 294.827 484.396 294.7 484.463C293.751 484.875 292.206 486.524 293.937 490.358C294.28 491.071 294.673 491.76 295.112 492.419C295.551 491.76 295.943 491.071 296.286 490.358C296.773 489.39 297.04 488.328 297.07 487.246C297.081 487.053 297.081 486.861 297.07 486.669L296.967 486.586Z" fill="black"/>
<path d="M344.536 459.566C343.691 459.566 340.599 461.627 344.536 467.625C348.473 461.668 345.381 459.566 344.536 459.566Z" fill="black"/>
<path d="M443.467 459.566C442.622 459.566 439.53 461.627 443.467 467.625C447.403 461.668 444.312 459.566 443.467 459.566Z" fill="black"/>
<path d="M394 385.369C393.155 385.369 390.063 387.43 394 393.428C397.936 387.471 394.845 385.369 394 385.369Z" fill="black"/>
<path d="M344.536 410.101C343.691 410.101 340.599 412.162 344.536 418.16C348.473 412.204 345.381 410.101 344.536 410.101Z" fill="black"/>
<path d="M443.467 410.101C442.622 410.101 439.53 412.162 443.467 418.16C447.403 412.204 444.312 410.101 443.467 410.101Z" fill="black"/>
<path d="M297.296 444.129C304.427 444.521 304.674 440.79 304.262 440.007C303.85 439.224 300.367 437.719 297.296 444.129Z" fill="black"/>
<path d="M396.227 444.129C403.337 444.521 403.605 440.79 403.193 440.007C402.781 439.224 399.297 437.719 396.227 444.129Z" fill="black"/>
<path d="M346.763 468.861C353.894 469.253 354.141 465.523 353.729 464.739C353.317 463.956 349.834 462.452 346.763 468.861Z" fill="black"/>
<path d="M445.691 468.861C452.802 469.253 453.07 465.523 452.658 464.739C452.245 463.956 448.762 462.452 445.691 468.861Z" fill="black"/>
<path d="M396.227 394.664C403.337 395.056 403.605 391.326 403.193 390.542C402.781 389.759 399.297 388.255 396.227 394.664Z" fill="black"/>
<path d="M346.763 419.397C353.894 419.788 354.141 416.058 353.729 415.275C353.317 414.491 349.834 412.987 346.763 419.397Z" fill="black"/>
<path d="M445.691 419.397C452.802 419.788 453.07 416.058 452.658 415.275C452.245 414.491 448.762 412.987 445.691 419.397Z" fill="black"/>
<path d="M353.645 365.872C353.233 365.171 350.224 363.811 347.235 368.86C347.235 369.231 347.235 369.581 347.235 369.932C353.789 370.22 354.057 366.572 353.645 365.872Z" fill="black"/>
<path d="M384.891 440.069C384.478 440.79 384.746 444.521 391.857 444.191C388.703 437.719 385.323 439.327 384.891 440.069Z" fill="black"/>
<path d="M384.891 489.533C384.746 490.057 384.772 490.613 384.965 491.12C385.158 491.628 385.507 492.061 385.963 492.357C387.716 493.462 389.808 493.9 391.857 493.594C391.663 493.168 391.443 492.755 391.198 492.357C388.25 487.411 385.303 488.833 384.891 489.533Z" fill="black"/>
<path d="M335.427 464.801C335.014 465.522 335.282 469.253 342.393 468.923C339.24 462.451 335.859 464.059 335.427 464.801Z" fill="black"/>
<path d="M483.821 440.069C483.388 440.79 483.676 444.521 490.787 444.191C487.634 437.719 484.253 439.327 483.821 440.069Z" fill="black"/>
<path d="M490.126 492.357C487.179 487.411 484.232 488.833 483.82 489.533C483.675 490.057 483.701 490.613 483.894 491.12C484.087 491.628 484.436 492.061 484.891 492.357C486.643 493.465 488.736 493.904 490.786 493.594C490.592 493.168 490.371 492.755 490.126 492.357Z" fill="black"/>
<path d="M434.355 464.801C433.922 465.522 434.211 469.253 441.321 468.923C438.168 462.451 434.788 464.059 434.355 464.801Z" fill="black"/>
<path d="M384.891 390.604C384.478 391.326 384.746 395.056 391.857 394.726C388.703 388.255 385.323 389.862 384.891 390.604Z" fill="black"/>
<path d="M335.427 415.336C335.014 416.058 335.282 419.788 342.393 419.458C339.24 412.987 335.859 414.594 335.427 415.336Z" fill="black"/>
<path d="M434.355 415.336C433.922 416.058 434.211 419.788 441.321 419.458C438.168 412.987 434.788 414.594 434.355 415.336Z" fill="black"/>
<path d="M437.447 369.623C437.262 369.046 437.076 368.489 436.911 367.891C436.746 367.294 436.458 366.098 436.252 365.13C435.899 365.09 435.542 365.137 435.212 365.266C434.882 365.395 434.588 365.603 434.356 365.872C434.026 366.428 434.129 368.778 437.447 369.623Z" fill="black"/>
<path d="M391.198 343.963C390.871 343.404 390.499 342.874 390.085 342.376C389.743 341.963 389.356 341.59 388.931 341.263C388.237 340.687 387.359 340.379 386.458 340.397C386.158 340.4 385.863 340.468 385.593 340.596C385.322 340.724 385.083 340.909 384.891 341.139C384.791 341.418 384.752 341.715 384.777 342.011C384.802 342.306 384.89 342.592 385.036 342.85C385.172 343.12 385.345 343.37 385.551 343.592L385.963 343.963C387.716 345.068 389.808 345.506 391.858 345.2C391.672 344.787 391.466 344.417 391.28 344.087L391.198 343.963Z" fill="black"/>
<path d="M296.967 585.515C296.93 585.2 296.839 584.893 296.699 584.609C296.639 584.48 296.57 584.356 296.493 584.238C296.362 584.037 296.202 583.856 296.019 583.702C295.87 583.574 295.704 583.47 295.524 583.393C295.397 583.326 295.255 583.291 295.112 583.291C294.968 583.291 294.827 583.326 294.7 583.393C293.751 583.805 292.206 585.454 293.937 589.287C294.28 590.001 294.673 590.689 295.112 591.348C295.551 590.689 295.943 590.001 296.286 589.287C296.773 588.32 297.04 587.257 297.07 586.175C297.081 585.983 297.081 585.79 297.07 585.598L296.967 585.515Z" fill="black"/>
<path d="M394 583.228C393.155 583.228 390.063 585.289 394 591.286C397.936 585.33 394.845 583.228 394 583.228Z" fill="black"/>
<path d="M394 632.692C393.155 632.692 390.063 634.753 394 640.751C397.936 634.795 394.845 632.692 394 632.692Z" fill="black"/>
<path d="M296.967 634.98C296.93 634.665 296.839 634.358 296.699 634.073C296.639 633.945 296.57 633.821 296.493 633.702C296.362 633.502 296.202 633.321 296.019 633.166C295.87 633.039 295.704 632.935 295.524 632.857C295.397 632.789 295.256 632.753 295.112 632.753C294.968 632.753 294.826 632.789 294.7 632.857C293.751 633.27 292.206 634.918 293.937 638.752C294.28 639.465 294.673 640.154 295.112 640.813C295.551 640.154 295.943 639.465 296.286 638.752C296.773 637.785 297.04 636.722 297.07 635.64C297.081 635.448 297.081 635.255 297.07 635.063L296.967 634.98Z" fill="black"/>
<path d="M344.536 607.96C343.691 607.96 340.599 610.021 344.536 616.019C348.473 610.062 345.381 607.96 344.536 607.96Z" fill="black"/>
<path d="M443.467 607.96C442.622 607.96 439.53 610.021 443.467 616.019C447.403 610.062 444.312 607.96 443.467 607.96Z" fill="black"/>
<path d="M296.967 536.051C296.93 535.735 296.839 535.428 296.699 535.144C296.639 535.015 296.57 534.891 296.493 534.773C296.362 534.572 296.202 534.391 296.019 534.237C295.87 534.109 295.704 534.005 295.524 533.928C295.397 533.861 295.255 533.826 295.112 533.826C294.968 533.826 294.827 533.861 294.7 533.928C293.751 534.34 292.206 535.989 293.937 539.822C294.28 540.536 294.673 541.225 295.112 541.883C295.551 541.225 295.943 540.536 296.286 539.822C296.773 538.855 297.04 537.792 297.07 536.71C297.081 536.518 297.081 536.325 297.07 536.133L296.967 536.051Z" fill="black"/>
<path d="M394 533.763C393.155 533.763 390.063 535.824 394 541.822C397.936 535.865 394.845 533.763 394 533.763Z" fill="black"/>
<path d="M344.536 558.495C343.691 558.495 340.599 560.557 344.536 566.554C348.473 560.598 345.381 558.495 344.536 558.495Z" fill="black"/>
<path d="M443.467 558.495C442.622 558.495 439.53 560.557 443.467 566.554C447.403 560.598 444.312 558.495 443.467 558.495Z" fill="black"/>
<path d="M344.536 509.031C343.691 509.031 340.599 511.092 344.536 517.089C348.473 511.133 345.381 509.031 344.536 509.031Z" fill="black"/>
<path d="M443.467 509.031C442.622 509.031 439.53 511.092 443.467 517.089C447.403 511.133 444.312 509.031 443.467 509.031Z" fill="black"/>
<path d="M297.296 592.523C304.427 592.914 304.674 589.184 304.262 588.401C303.85 587.618 300.367 586.113 297.296 592.523Z" fill="black"/>
<path d="M396.227 592.523C403.337 592.914 403.605 589.184 403.193 588.401C402.781 587.618 399.297 586.113 396.227 592.523Z" fill="black"/>
<path d="M401.544 637.185C400.642 637.167 399.764 637.475 399.071 638.051C398.651 638.384 398.264 638.756 397.917 639.164C397.503 639.661 397.13 640.192 396.804 640.751V640.875C396.618 641.204 396.412 641.575 396.227 641.987C398.276 642.298 400.369 641.859 402.121 640.751C402.268 640.638 402.405 640.514 402.533 640.38C402.739 640.158 402.913 639.908 403.049 639.638C403.194 639.38 403.282 639.094 403.307 638.798C403.332 638.503 403.293 638.206 403.193 637.927C402.992 637.686 402.74 637.494 402.454 637.366C402.168 637.237 401.857 637.176 401.544 637.185Z" fill="black"/>
<path d="M302.613 637.185C301.712 637.167 300.834 637.474 300.14 638.051C299.72 638.383 299.334 638.756 298.986 639.164C298.572 639.661 298.2 640.192 297.873 640.751V640.874C297.687 641.204 297.481 641.575 297.296 641.987C299.346 642.298 301.438 641.859 303.19 640.751C303.337 640.638 303.475 640.514 303.603 640.38C303.808 640.158 303.982 639.908 304.118 639.638C304.319 639.401 304.442 639.108 304.469 638.798C304.497 638.489 304.428 638.178 304.272 637.91C304.116 637.641 303.881 637.427 303.599 637.297C303.317 637.168 303.001 637.128 302.696 637.185H302.613Z" fill="black"/>
<path d="M346.763 617.255C353.894 617.647 354.141 613.916 353.729 613.133C353.317 612.35 349.834 610.845 346.763 617.255Z" fill="black"/>
<path d="M445.691 617.255C452.802 617.647 453.07 613.916 452.658 613.133C452.245 612.35 448.762 610.845 445.691 617.255Z" fill="black"/>
<path d="M297.296 543.058C304.427 543.45 304.674 539.719 304.262 538.936C303.85 538.153 300.367 536.648 297.296 543.058Z" fill="black"/>
<path d="M396.227 543.058C403.337 543.45 403.605 539.719 403.193 538.936C402.781 538.153 399.297 536.648 396.227 543.058Z" fill="black"/>
<path d="M346.763 567.79C353.894 568.182 354.141 564.452 353.729 563.668C353.317 562.885 349.834 561.381 346.763 567.79Z" fill="black"/>
<path d="M445.691 567.79C452.802 568.182 453.07 564.452 452.658 563.668C452.245 562.885 448.762 561.381 445.691 567.79Z" fill="black"/>
<path d="M346.763 518.326C353.894 518.718 354.141 514.987 353.729 514.204C353.317 513.421 349.834 511.916 346.763 518.326Z" fill="black"/>
<path d="M445.691 518.326C452.802 518.718 453.07 514.987 452.658 514.204C452.245 513.421 448.762 511.916 445.691 518.326Z" fill="black"/>
<path d="M384.891 588.463C384.478 589.184 384.746 592.915 391.857 592.585C388.703 586.113 385.323 587.721 384.891 588.463Z" fill="black"/>
<path d="M335.427 613.195C335.014 613.916 335.282 617.647 342.393 617.317C339.24 610.845 335.859 612.453 335.427 613.195Z" fill="black"/>
<path d="M483.821 588.463C483.388 589.184 483.676 592.915 490.787 592.585C487.634 586.113 484.253 587.721 483.821 588.463Z" fill="black"/>
<path d="M434.355 613.195C433.922 613.916 434.211 617.647 441.321 617.317C438.168 610.845 434.788 612.453 434.355 613.195Z" fill="black"/>
<path d="M306.759 646.934C306.759 646.934 360.346 660.681 427.659 608.475C494.972 556.27 521.106 576.859 518.344 613.958C515.582 651.056 457.894 685.413 433.162 689.536C392.498 696.316 356.223 707.405 306.759 646.934Z" fill="black"/>
<path d="M384.891 538.998C384.478 539.719 384.746 543.45 391.857 543.12C388.703 536.648 385.323 538.256 384.891 538.998Z" fill="black"/>
<path d="M335.427 563.73C335.014 564.452 335.282 568.182 342.393 567.853C339.24 561.381 335.859 562.988 335.427 563.73Z" fill="black"/>
<path d="M483.821 538.998C483.388 539.719 483.676 543.45 490.787 543.12C487.634 536.648 484.253 538.256 483.821 538.998Z" fill="black"/>
<path d="M434.355 563.73C433.922 564.452 434.211 568.182 441.321 567.853C438.168 561.381 434.788 562.988 434.355 563.73Z" fill="black"/>
<path d="M335.427 514.266C335.014 514.987 335.282 518.717 342.393 518.388C339.24 511.916 335.859 513.524 335.427 514.266Z" fill="black"/>
<path d="M434.355 514.266C433.922 514.987 434.211 518.717 441.321 518.388C438.168 511.916 434.788 513.524 434.355 514.266Z" fill="black"/>
<path d="M402.04 492.357C402.496 492.061 402.845 491.628 403.038 491.12C403.23 490.612 403.256 490.057 403.112 489.533C402.7 488.832 399.752 487.472 396.805 492.357C396.56 492.755 396.34 493.168 396.146 493.593C398.195 493.904 400.288 493.465 402.04 492.357Z" fill="black"/>
<path d="M303.109 492.357C303.565 492.061 303.914 491.628 304.107 491.12C304.3 490.612 304.326 490.057 304.181 489.533C303.769 488.832 300.822 487.472 297.874 492.357C297.63 492.755 297.409 493.168 297.215 493.593C299.264 493.904 301.357 493.465 303.109 492.357Z" fill="black"/>
<path d="M296.967 733.909C296.93 733.594 296.839 733.287 296.699 733.003C296.639 732.874 296.57 732.75 296.493 732.632C296.362 732.431 296.202 732.25 296.019 732.096C295.87 731.968 295.704 731.864 295.524 731.787C295.397 731.718 295.256 731.682 295.112 731.682C294.968 731.682 294.826 731.718 294.7 731.787C293.751 732.199 292.206 733.848 293.937 737.681C294.28 738.395 294.673 739.083 295.112 739.742C295.551 739.083 295.943 738.395 296.286 737.681C296.773 736.714 297.04 735.651 297.07 734.569C297.081 734.377 297.081 734.184 297.07 733.992L296.967 733.909Z" fill="black"/>
<path d="M394 731.622C393.155 731.622 390.063 733.683 394 739.68C397.936 733.724 394.845 731.622 394 731.622Z" fill="black"/>
<path d="M394 781.086C393.155 781.086 390.063 783.147 394 789.145C397.936 783.189 394.845 781.086 394 781.086Z" fill="black"/>
<path d="M296.967 783.374C296.93 783.059 296.839 782.752 296.699 782.467C296.639 782.339 296.57 782.215 296.493 782.096C296.362 781.895 296.202 781.715 296.019 781.56C295.87 781.433 295.704 781.328 295.524 781.251C295.397 781.183 295.256 781.147 295.112 781.147C294.968 781.147 294.826 781.183 294.7 781.251C293.751 781.663 292.206 783.312 293.937 787.146C294.28 787.859 294.673 788.548 295.112 789.207C295.551 788.548 295.943 787.859 296.286 787.146C296.773 786.178 297.04 785.116 297.07 784.034C297.081 783.841 297.081 783.649 297.07 783.456L296.967 783.374Z" fill="black"/>
<path d="M344.536 756.354C343.691 756.354 340.599 758.415 344.536 764.413C348.473 758.456 345.381 756.354 344.536 756.354Z" fill="black"/>
<path d="M443.467 756.354C442.622 756.354 439.53 758.415 443.467 764.413C447.403 758.456 444.312 756.354 443.467 756.354Z" fill="black"/>
<path d="M296.967 684.445C296.93 684.129 296.839 683.822 296.699 683.538C296.639 683.409 296.57 683.285 296.493 683.167C296.362 682.966 296.202 682.785 296.019 682.631C295.87 682.503 295.704 682.399 295.524 682.322C295.397 682.253 295.256 682.217 295.112 682.217C294.968 682.217 294.826 682.253 294.7 682.322C293.751 682.734 292.206 684.383 293.937 688.216C294.28 688.93 294.673 689.619 295.112 690.277C295.551 689.619 295.943 688.93 296.286 688.216C296.773 687.249 297.04 686.186 297.07 685.104C297.081 684.912 297.081 684.719 297.07 684.527L296.967 684.445Z" fill="black"/>
<path d="M394 682.157C393.155 682.157 390.063 684.218 394 690.216C397.936 684.259 394.845 682.157 394 682.157Z" fill="black"/>
<path d="M344.536 706.889C343.691 706.889 340.599 708.95 344.536 714.948C348.473 708.992 345.381 706.889 344.536 706.889Z" fill="black"/>
<path d="M443.467 706.889C442.622 706.889 439.53 708.95 443.467 714.948C447.403 708.992 444.312 706.889 443.467 706.889Z" fill="black"/>
<path d="M344.536 657.425C343.691 657.425 340.599 659.486 344.536 665.483C348.473 659.527 345.381 657.425 344.536 657.425Z" fill="black"/>
<path d="M443.467 657.425C442.622 657.425 439.53 659.486 443.467 665.483C447.403 659.527 444.312 657.425 443.467 657.425Z" fill="black"/>
<path d="M297.296 740.917C304.427 741.309 304.674 737.578 304.262 736.795C303.85 736.012 300.367 734.507 297.296 740.917Z" fill="black"/>
<path d="M396.227 740.917C403.337 741.309 403.605 737.578 403.193 736.795C402.781 736.012 399.297 734.507 396.227 740.917Z" fill="black"/>
<path d="M401.545 785.579H401.113C400.581 785.618 400.066 785.78 399.608 786.054L399.072 786.424C398.155 787.176 397.386 788.091 396.805 789.124C396.56 789.523 396.34 789.936 396.146 790.361C398.195 790.671 400.288 790.232 402.04 789.124C402.496 788.829 402.845 788.396 403.038 787.888C403.23 787.38 403.256 786.824 403.112 786.301C402.918 786.075 402.678 785.893 402.408 785.768C402.137 785.644 401.843 785.579 401.545 785.579Z" fill="black"/>
<path d="M302.615 785.579H302.182C301.65 785.618 301.135 785.78 300.677 786.054L300.141 786.424C299.224 787.176 298.455 788.091 297.874 789.124C297.63 789.523 297.409 789.936 297.215 790.361C299.264 790.671 301.357 790.232 303.109 789.124C303.565 788.829 303.914 788.396 304.107 787.888C304.3 787.38 304.326 786.824 304.181 786.301C303.988 786.075 303.747 785.893 303.477 785.768C303.207 785.644 302.912 785.579 302.615 785.579Z" fill="black"/>
<path d="M346.763 765.649C353.894 766.041 354.141 762.31 353.729 761.527C353.317 760.744 349.834 759.239 346.763 765.649Z" fill="black"/>
<path d="M445.691 765.649C452.802 766.041 453.07 762.31 452.658 761.527C452.245 760.744 448.762 759.239 445.691 765.649Z" fill="black"/>
<path d="M297.296 691.452C304.427 691.844 304.674 688.113 304.262 687.33C303.85 686.547 300.367 685.042 297.296 691.452Z" fill="black"/>
<path d="M396.227 691.452C403.337 691.844 403.605 688.113 403.193 687.33C402.781 686.547 399.297 685.042 396.227 691.452Z" fill="black"/>
<path d="M346.763 716.185C353.894 716.576 354.141 712.846 353.729 712.063C353.317 711.279 349.834 709.775 346.763 716.185Z" fill="black"/>
<path d="M445.691 716.185C452.802 716.576 453.07 712.846 452.658 712.063C452.245 711.279 448.762 709.775 445.691 716.185Z" fill="black"/>
<path d="M346.763 666.72C353.894 667.111 354.141 663.381 353.729 662.598C353.317 661.815 349.834 660.31 346.763 666.72Z" fill="black"/>
<path d="M445.691 666.72C452.802 667.111 453.07 663.381 452.658 662.598C452.245 661.815 448.762 660.31 445.691 666.72Z" fill="black"/>
<path d="M384.891 736.857C384.478 737.578 384.746 741.309 391.857 740.979C388.703 734.507 385.323 736.115 384.891 736.857Z" fill="black"/>
<path d="M388.931 786.548L388.395 786.177C387.938 785.901 387.422 785.739 386.89 785.703H386.457C386.158 785.706 385.863 785.773 385.592 785.901C385.322 786.03 385.083 786.215 384.891 786.445C384.746 786.969 384.772 787.524 384.965 788.032C385.158 788.54 385.507 788.973 385.963 789.269C387.716 790.373 389.808 790.812 391.857 790.505C391.663 790.08 391.443 789.667 391.198 789.269C390.626 788.223 389.856 787.299 388.931 786.548Z" fill="black"/>
<path d="M335.427 761.589C335.014 762.31 335.282 766.041 342.393 765.711C339.24 759.239 335.859 760.847 335.427 761.589Z" fill="black"/>
<path d="M483.821 736.857C483.388 737.578 483.676 741.309 490.787 740.979C487.634 734.507 484.253 736.115 483.821 736.857Z" fill="black"/>
<path d="M490.126 789.145C489.545 788.112 488.776 787.196 487.859 786.445L487.323 786.074C486.866 785.801 486.35 785.639 485.819 785.6H485.386C485.087 785.602 484.792 785.67 484.521 785.798C484.251 785.926 484.011 786.112 483.82 786.342C483.675 786.865 483.701 787.421 483.894 787.929C484.087 788.437 484.436 788.87 484.891 789.165C486.643 790.273 488.736 790.712 490.786 790.402C490.592 789.977 490.371 789.564 490.126 789.165V789.145Z" fill="black"/>
<path d="M434.355 761.589C433.922 762.31 434.211 766.041 441.321 765.711C438.168 759.239 434.788 760.847 434.355 761.589Z" fill="black"/>
<path d="M384.891 687.392C384.478 688.113 384.746 691.844 391.857 691.514C388.703 685.042 385.323 686.65 384.891 687.392Z" fill="black"/>
<path d="M335.427 712.124C335.014 712.846 335.282 716.576 342.393 716.246C339.24 709.775 335.859 711.382 335.427 712.124Z" fill="black"/>
<path d="M483.821 687.392C483.388 688.113 483.676 691.844 490.787 691.514C487.634 685.042 484.253 686.65 483.821 687.392Z" fill="black"/>
<path d="M434.355 712.124C433.922 712.846 434.211 716.576 441.321 716.246C438.168 709.775 434.788 711.382 434.355 712.124Z" fill="black"/>
<path d="M335.427 662.66C335.014 663.381 335.282 667.112 342.393 666.782C339.24 660.31 335.859 661.918 335.427 662.66Z" fill="black"/>
<path d="M434.355 662.66C433.922 663.381 434.211 667.112 441.321 666.782C438.168 660.31 434.788 661.918 434.355 662.66Z" fill="black"/>
<path d="M391.198 640.751C390.871 640.192 390.499 639.661 390.085 639.164C389.743 638.751 389.356 638.378 388.931 638.051C388.237 637.474 387.359 637.167 386.458 637.185C386.158 637.188 385.863 637.255 385.593 637.384C385.322 637.512 385.083 637.697 384.891 637.927C384.791 638.206 384.752 638.503 384.777 638.798C384.802 639.093 384.89 639.38 385.036 639.638C385.172 639.908 385.345 640.158 385.551 640.38L385.963 640.751C387.716 641.855 389.808 642.294 391.858 641.987C391.672 641.575 391.466 641.204 391.28 640.874L391.198 640.751Z" fill="black"/>
<path d="M490.128 640.751C489.801 640.192 489.429 639.661 489.015 639.164C488.667 638.756 488.281 638.383 487.861 638.051C487.167 637.474 486.289 637.167 485.387 637.185C485.088 637.188 484.793 637.255 484.522 637.384C484.252 637.512 484.013 637.697 483.821 637.927C483.721 638.206 483.682 638.503 483.707 638.798C483.731 639.093 483.82 639.38 483.965 639.638C484.101 639.908 484.275 640.158 484.481 640.38C484.608 640.514 484.746 640.638 484.893 640.751C486.645 641.859 488.738 642.298 490.787 641.987C490.602 641.575 490.396 641.204 490.21 640.874C490.176 640.838 490.148 640.796 490.128 640.751Z" fill="black"/>
<path d="M344.536 805.819C343.691 805.819 340.599 807.88 344.536 813.877C348.473 807.921 345.381 805.819 344.536 805.819Z" fill="black"/>
<path d="M443.467 805.819C442.622 805.819 439.53 807.88 443.467 813.877C447.403 807.921 444.312 805.819 443.467 805.819Z" fill="black"/>
<path d="M346.763 815.114C353.894 815.505 354.141 811.775 353.729 810.992C353.317 810.209 349.834 808.704 346.763 815.114Z" fill="black"/>
<path d="M445.691 815.114C452.802 815.505 453.07 811.775 452.658 810.992C452.245 810.209 448.762 808.704 445.691 815.114Z" fill="black"/>
<path d="M335.427 811.054C335.014 811.775 335.282 815.506 342.393 815.176C339.24 808.704 335.859 810.312 335.427 811.054Z" fill="black"/>
<path d="M434.355 811.054C433.922 811.775 434.211 815.506 441.321 815.176C438.168 808.704 434.788 810.312 434.355 811.054Z" fill="black"/>
<path d="M196.142 484.298C195.297 484.298 192.206 486.359 196.142 492.357C200.079 486.401 196.987 484.298 196.142 484.298Z" fill="black"/>
<path d="M245.606 459.566C244.761 459.566 241.67 461.627 245.606 467.625C249.543 461.668 246.451 459.566 245.606 459.566Z" fill="black"/>
<path d="M247.42 411.998L243.648 412.966C243.774 414.853 244.456 416.66 245.606 418.16C247.523 415.275 247.832 413.275 247.42 411.998Z" fill="black"/>
<path d="M198.368 444.129C205.479 444.521 205.747 440.79 205.334 440.007C204.922 439.224 201.439 437.719 198.368 444.129Z" fill="black"/>
<path d="M247.832 468.861C254.943 469.253 255.211 465.523 254.798 464.739C254.386 463.956 250.903 462.452 247.832 468.861Z" fill="black"/>
<path d="M247.832 419.397C254.943 419.788 255.211 416.058 254.798 415.275C254.386 414.491 250.903 412.987 247.832 419.397Z" fill="black"/>
<path d="M187.032 489.533C186.887 490.057 186.913 490.613 187.106 491.12C187.298 491.628 187.648 492.061 188.103 492.357C189.857 493.462 191.948 493.9 193.998 493.594C193.803 493.168 193.583 492.755 193.338 492.357C190.391 487.411 187.444 488.833 187.032 489.533Z" fill="black"/>
<path d="M285.962 440.069C285.529 440.79 285.818 444.521 292.929 444.191C289.775 437.719 286.395 439.327 285.962 440.069Z" fill="black"/>
<path d="M292.269 492.357C289.322 487.411 286.374 488.833 285.962 489.533C285.818 490.057 285.844 490.613 286.036 491.12C286.229 491.628 286.579 492.061 287.034 492.357C288.786 493.465 290.879 493.904 292.929 493.594C292.734 493.168 292.514 492.755 292.269 492.357Z" fill="black"/>
<path d="M236.497 464.801C236.065 465.522 236.353 469.253 243.464 468.923C240.31 462.451 236.93 464.059 236.497 464.801Z" fill="black"/>
<path d="M238.002 414.615L236.93 414.945C236.759 415.042 236.612 415.176 236.497 415.336C236.065 416.058 236.353 419.788 243.464 419.458C241.465 415.316 239.383 414.491 238.002 414.615Z" fill="black"/>
<path d="M97.2117 583.228C96.3667 583.228 93.2752 585.289 97.2117 591.286C101.148 585.33 98.0567 583.228 97.2117 583.228Z" fill="black"/>
<path d="M146.679 607.96C145.834 607.96 142.742 610.021 146.679 616.019C150.615 610.062 147.524 607.96 146.679 607.96Z" fill="black"/>
<path d="M196.142 533.763C195.297 533.763 192.206 535.824 196.142 541.822C200.079 535.865 196.987 533.763 196.142 533.763Z" fill="black"/>
<path d="M146.679 558.495C145.834 558.495 142.742 560.557 146.679 566.554C150.615 560.598 147.524 558.495 146.679 558.495Z" fill="black"/>
<path d="M245.606 558.495C244.761 558.495 241.67 560.557 245.606 566.554C249.543 560.598 246.451 558.495 245.606 558.495Z" fill="black"/>
<path d="M146.679 509.031C145.834 509.031 142.742 511.092 146.679 517.089C150.615 511.133 147.524 509.031 146.679 509.031Z" fill="black"/>
<path d="M245.606 509.031C244.761 509.031 241.67 511.092 245.606 517.089C249.543 511.133 246.451 509.031 245.606 509.031Z" fill="black"/>
<path d="M99.4385 592.523C106.57 592.914 106.838 589.184 106.405 588.401C105.972 587.618 102.509 586.113 99.4385 592.523Z" fill="black"/>
<path d="M150.035 615.153C151.869 614.473 153.663 613.71 155.435 612.845C154.569 612.268 152.344 611.876 150.035 615.153Z" fill="black"/>
<path d="M106.322 538.998C106.079 538.688 105.737 538.469 105.354 538.38C104.076 540.008 102.86 541.554 101.809 543.017C106.528 542.522 106.693 539.637 106.322 538.998Z" fill="black"/>
<path d="M198.368 543.058C205.479 543.45 205.747 539.719 205.334 538.936C204.922 538.153 201.439 536.648 198.368 543.058Z" fill="black"/>
<path d="M148.903 567.79C156.034 568.182 156.282 564.452 155.87 563.668C155.457 562.885 151.974 561.381 148.903 567.79Z" fill="black"/>
<path d="M247.832 567.79C254.943 568.182 255.211 564.452 254.798 563.668C254.386 562.885 250.903 561.381 247.832 567.79Z" fill="black"/>
<path d="M148.903 518.326C156.034 518.718 156.282 514.987 155.87 514.204C155.457 513.421 151.974 511.916 148.903 518.326Z" fill="black"/>
<path d="M247.832 518.326C254.943 518.718 255.211 514.987 254.798 514.204C254.386 513.421 250.903 511.916 247.832 518.326Z" fill="black"/>
<path d="M137.567 613.195C137.176 613.854 137.382 616.987 142.802 617.317L144.348 616.967C141.256 610.928 138 612.474 137.567 613.195Z" fill="black"/>
<path d="M285.962 588.463C285.529 589.184 285.818 592.915 292.929 592.585C289.775 586.113 286.395 587.721 285.962 588.463Z" fill="black"/>
<path d="M187.032 538.998C186.62 539.719 186.888 543.45 193.998 543.12C190.845 536.648 187.465 538.256 187.032 538.998Z" fill="black"/>
<path d="M137.567 563.73C137.155 564.452 137.423 568.182 144.534 567.853C141.38 561.381 138 562.988 137.567 563.73Z" fill="black"/>
<path d="M285.962 538.998C285.529 539.719 285.818 543.45 292.929 543.12C289.775 536.648 286.395 538.256 285.962 538.998Z" fill="black"/>
<path d="M137.567 514.266C137.155 514.987 137.423 518.717 144.534 518.388C141.38 511.916 138 513.524 137.567 514.266Z" fill="black"/>
<path d="M236.497 514.266C236.065 514.987 236.353 518.717 243.464 518.388C240.31 511.916 236.93 513.524 236.497 514.266Z" fill="black"/>
<path d="M204.18 492.357C204.635 492.061 204.985 491.628 205.177 491.12C205.37 490.612 205.396 490.057 205.251 489.533C204.839 488.832 201.892 487.472 198.945 492.357C198.7 492.755 198.48 493.168 198.285 493.593C200.335 493.904 202.428 493.465 204.18 492.357Z" fill="black"/>
<path d="M245.606 756.354C244.761 756.354 241.67 758.415 245.606 764.413C249.543 758.456 246.451 756.354 245.606 756.354Z" fill="black"/>
<path d="M247.194 711.815L245.463 714.721L245.607 714.948C246.274 713.979 246.808 712.926 247.194 711.815Z" fill="black"/>
<path d="M247.832 765.649C254.943 766.041 255.211 762.31 254.798 761.527C254.386 760.744 250.903 759.239 247.832 765.649Z" fill="black"/>
<path d="M247.832 716.185C254.943 716.576 255.211 712.846 254.798 712.063C254.386 711.279 250.903 709.775 247.832 716.185Z" fill="black"/>
<path d="M285.962 736.857C285.529 737.578 285.818 741.309 292.929 740.979C289.775 734.507 286.395 736.115 285.962 736.857Z" fill="black"/>
<path d="M292.269 789.145C291.688 788.112 290.919 787.196 290.002 786.445L289.466 786.074C289.008 785.801 288.493 785.639 287.961 785.6H287.529C287.229 785.602 286.934 785.67 286.664 785.798C286.393 785.926 286.154 786.112 285.962 786.342C285.818 786.865 285.844 787.421 286.036 787.929C286.229 788.437 286.579 788.87 287.034 789.165C288.786 790.273 290.879 790.712 292.929 790.402C292.734 789.977 292.514 789.564 292.269 789.165V789.145Z" fill="black"/>
<path d="M236.497 761.589C236.065 762.31 236.353 766.041 243.464 765.711C240.31 759.239 236.93 760.847 236.497 761.589Z" fill="black"/>
<path d="M285.962 687.392C285.529 688.113 285.818 691.844 292.929 691.514C289.775 685.042 286.395 686.65 285.962 687.392Z" fill="black"/>
<path d="M292.267 640.751C291.941 640.192 291.568 639.661 291.154 639.164C290.807 638.756 290.42 638.383 290 638.051C289.307 637.474 288.429 637.167 287.527 637.185C287.228 637.188 286.933 637.255 286.662 637.384C286.391 637.512 286.152 637.697 285.961 637.927C285.86 638.206 285.821 638.503 285.846 638.798C285.871 639.093 285.959 639.38 286.105 639.638C286.241 639.908 286.414 640.158 286.62 640.38C286.748 640.514 286.886 640.638 287.032 640.751C288.784 641.859 290.877 642.298 292.927 641.987C292.741 641.575 292.535 641.204 292.35 640.874L292.267 640.751Z" fill="black"/>
<path d="M245.606 805.819C244.761 805.819 241.67 807.88 245.606 813.877C249.543 807.921 246.451 805.819 245.606 805.819Z" fill="black"/>
<path d="M247.832 815.114C254.943 815.505 255.211 811.775 254.798 810.992C254.386 810.209 250.903 808.704 247.832 815.114Z" fill="black"/>
<path d="M236.497 811.054C236.065 811.775 236.353 815.506 243.464 815.176C240.31 808.704 236.93 810.312 236.497 811.054Z" fill="black"/>
<path d="M92.3691 588.792C92.7785 590.066 93.2532 591.318 93.7913 592.544H95.0691C94.4431 591.117 93.5231 589.839 92.3691 588.792Z" fill="black"/>
</g>
</g>
<path d="M573.926 815.938C573.926 815.938 577.615 765.34 555.377 714.721C533.138 664.102 528.13 660.454 528.13 645.636C528.13 630.817 543.011 613.525 545.484 580.198C547.957 546.871 546.721 530.733 546.721 530.733C546.721 530.733 599.792 614.658 636.829 619.605C673.865 624.551 696.083 589.988 682.501 543.079C668.919 496.17 609.664 457.917 586.23 427.043C562.797 396.169 509.684 396.128 482.54 396.128C455.396 396.128 441.814 386.255 436.868 367.747C431.921 349.239 431.942 312.099 431.942 312.099C431.942 312.099 399.831 331.844 345.523 309.626C345.523 309.626 350.47 377.516 344.286 387.389C338.103 397.261 329.53 407.319 292.493 407.319C255.456 407.319 224.603 414.739 207.331 432.051C190.06 449.364 118.46 518.45 99.9517 545.614C81.4436 572.778 91.2953 602.395 113.513 613.504C135.731 624.613 157.949 614.72 174.004 599.922C190.06 585.124 240.658 538.194 240.658 538.194C240.658 538.194 240.658 566.595 254.24 607.321C267.822 648.047 278.972 643.121 269.038 672.738C259.104 702.355 239.421 711.011 233.259 749.264C229.568 771.283 227.912 793.595 228.312 815.918" stroke="#263238" stroke-linecap="round" stroke-linejoin="round"/>
<path d="M240.659 538.215C241.672 524.865 244.408 511.702 248.8 499.055L240.659 538.215Z" fill="white"/>
<path d="M240.659 538.215C241.672 524.865 244.408 511.702 248.8 499.055" stroke="#263238" stroke-linecap="round" stroke-linejoin="round"/>
<path d="M546.681 530.816C543.963 520.572 540.185 510.639 535.407 501.178" stroke="#263238" stroke-linecap="round" stroke-linejoin="round"/>
<path d="M365.373 667.627L443.115 642.709" stroke="#263238" stroke-linecap="round" stroke-linejoin="round"/>
<path d="M400.574 647.099C418.736 639.79 437.688 634.623 457.046 631.703" stroke="#263238" stroke-linecap="round" stroke-linejoin="round"/>
<path d="M378.892 490.09C440.475 501.961 464.239 442.933 472.504 395.756C451.996 393.489 441.197 383.947 436.91 367.891C431.984 349.342 431.984 312.243 431.984 312.243C431.984 312.243 399.873 331.988 345.565 309.77C345.565 309.77 350.511 377.66 344.328 387.533C340.041 394.417 334.518 401.3 319.06 404.825C318.504 426.012 322.77 479.249 378.892 490.09Z" fill="#FFAD72"/>
<mask id="mask1_387_470" style="mask-type:luminance" maskUnits="userSpaceOnUse" x="319" y="309" width="154" height="183">
<path d="M378.893 490.09C440.476 501.961 464.24 442.933 472.505 395.756C451.997 393.489 441.198 383.947 436.911 367.891C431.985 349.342 431.985 312.243 431.985 312.243C431.985 312.243 399.874 331.988 345.566 309.77C345.566 309.77 350.512 377.66 344.329 387.533C340.042 394.417 334.519 401.3 319.061 404.825C318.505 426.012 322.771 479.249 378.893 490.09Z" fill="white"/>
</mask>
<g mask="url(#mask1_387_470)">
<path opacity="0.2" d="M435.571 361.791C431.985 342.293 431.985 312.326 431.985 312.326C431.985 312.326 399.874 332.071 345.566 309.853C345.566 309.853 347.627 338.233 347.421 360.966C394.165 377.207 421.206 370.323 435.571 361.791Z" fill="black"/>
</g>
<path d="M378.892 490.09C440.475 501.961 464.239 442.933 472.504 395.756C451.996 393.489 441.197 383.947 436.91 367.891C431.984 349.342 431.984 312.243 431.984 312.243C431.984 312.243 399.873 331.988 345.565 309.77C345.565 309.77 350.511 377.661 344.328 387.533C340.041 394.417 334.518 401.3 319.06 404.825C318.504 426.012 322.77 479.249 378.892 490.09Z" stroke="#263238" stroke-linecap="round" stroke-linejoin="round"/>
<path d="M472.01 288.665C480.456 288.665 487.302 281.819 487.302 273.373C487.302 264.927 480.456 258.08 472.01 258.08C463.564 258.08 456.717 264.927 456.717 273.373C456.717 281.819 463.564 288.665 472.01 288.665Z" fill="#F10065" stroke="#263238" stroke-linecap="round" stroke-linejoin="round"/>
<path d="M308.651 288.665C317.097 288.665 323.944 281.819 323.944 273.373C323.944 264.927 317.097 258.08 308.651 258.08C300.205 258.08 293.358 264.927 293.358 273.373C293.358 281.819 300.205 288.665 308.651 288.665Z" fill="#F10065" stroke="#263238" stroke-linecap="round" stroke-linejoin="round"/>
<path d="M470.609 221.249C470.609 221.249 478.255 197.609 487.303 205.956C496.351 214.304 484.521 246.27 478.255 253.917C471.99 261.563 465.745 261.563 466.446 251.134C467.146 240.705 470.609 221.249 470.609 221.249Z" fill="#FFAD72" stroke="#263238" stroke-linecap="round" stroke-linejoin="round"/>
<path d="M312.526 245.034C312.526 245.034 314.587 300.248 355.231 327.33C395.874 354.412 426.068 338.79 442.742 315.871C459.416 292.952 469.845 270.034 469.845 236.707C469.845 203.38 473.967 188.767 462.549 167.93C451.13 147.094 411.497 136.685 411.497 136.685C395.032 157.234 377.285 176.722 358.364 195.033C327.098 225.227 312.526 245.034 312.526 245.034Z" fill="#FFAD72"/>
<mask id="mask2_387_470" style="mask-type:luminance" maskUnits="userSpaceOnUse" x="312" y="136" width="159" height="206">
<path d="M312.526 245.034C312.526 245.034 314.587 300.248 355.231 327.33C395.874 354.412 426.068 338.79 442.742 315.871C459.416 292.952 469.845 270.034 469.845 236.707C469.845 203.38 473.967 188.767 462.549 167.93C451.13 147.094 411.497 136.685 411.497 136.685C395.032 157.234 377.285 176.722 358.364 195.033C327.098 225.227 312.526 245.034 312.526 245.034Z" fill="white"/>
</mask>
<g mask="url(#mask2_387_470)">
<path opacity="0.2" d="M411.497 136.685C395.032 157.234 377.285 176.722 358.364 195.033C327.098 225.227 312.526 245.034 312.526 245.034C313.281 255.792 315.408 266.41 318.854 276.629C373.76 234.625 403.747 159.15 411.724 136.747L411.497 136.685Z" fill="black"/>
</g>
<path d="M312.526 245.034C312.526 245.034 314.587 300.248 355.231 327.33C395.874 354.412 426.068 338.79 442.742 315.871C459.416 292.952 469.845 270.034 469.845 236.707C469.845 203.38 473.967 188.767 462.549 167.93C451.13 147.094 411.497 136.685 411.497 136.685C395.032 157.234 377.285 176.722 358.364 195.033C327.098 225.227 312.526 245.034 312.526 245.034Z" stroke="#263238" stroke-linecap="round" stroke-linejoin="round"/>
<path d="M350.967 238.541L374.359 240.726" stroke="#263238" stroke-linecap="round" stroke-linejoin="round"/>
<path d="M421.866 237.799C421.866 237.799 437.221 234.873 444.538 237.799" stroke="#263238" stroke-linecap="round" stroke-linejoin="round"/>
<path d="M371.206 227.845C371.206 233.409 368.712 237.923 365.641 237.923C362.57 237.923 360.097 233.409 360.097 227.845C360.097 222.28 362.57 217.766 365.641 217.766C368.712 217.766 371.206 222.28 371.206 227.845Z" fill="#263238"/>
<path d="M383.715 263.047C387.447 265.388 391.839 266.454 396.229 266.082C400.62 265.71 404.77 263.922 408.056 260.986" stroke="#263238" stroke-linecap="round" stroke-linejoin="round"/>
<path d="M390.043 286.584C390.043 286.584 411.581 295.632 424.091 266.427" stroke="#263238" stroke-linecap="round" stroke-linejoin="round"/>
<path d="M417.784 228.195C417.784 228.195 430.995 219.147 444.207 224.712" stroke="#263238" stroke-width="2" stroke-linecap="round" stroke-linejoin="round"/>
<path d="M413.62 205.338C413.62 205.338 428.212 190.746 448.369 202.556" stroke="#263238" stroke-width="2" stroke-linecap="round" stroke-linejoin="round"/>
<path d="M382.334 196.208C382.334 196.208 369.824 183.697 352.429 195.528" stroke="#263238" stroke-width="2" stroke-linecap="round" stroke-linejoin="round"/>
<path d="M99.9532 545.635C99.9532 545.635 77.7354 570.367 77.7354 596.233C77.7354 622.099 92.5335 645.697 133.383 682.631C174.233 719.565 212.362 746.811 228.417 755.468C244.472 764.124 260.507 752.995 260.507 752.995C260.507 752.995 287.053 779.52 290.124 773.357C293.195 767.195 280.87 757.92 278.397 754.231C276.226 751.3 273.745 748.612 270.998 746.214C270.998 746.214 283.962 748.048 288.908 752.397C293.855 756.746 301.851 764.124 305.561 763.506C309.271 762.887 309.271 759.796 303.706 752.397C299.22 746.602 293.801 741.594 287.672 737.578C283.962 735.125 271.616 728.324 271.616 728.324C271.616 728.324 289.506 727.087 295.689 730.797C301.872 734.507 318.525 745.616 319.762 740.67C320.998 735.723 320.998 732.652 314.815 727.087C308.632 721.523 296.266 714.721 288.908 713.505C283.836 712.572 278.871 711.129 274.089 709.198C274.089 709.198 288.29 704.251 293.216 704.251C298.142 704.251 317.948 714.124 323.451 712.908C328.954 711.692 325.924 706.724 321.617 703.633C317.309 700.541 298.162 693.142 290.124 692.524C282.086 691.906 237.053 707.343 231.509 707.343C225.964 707.343 211.764 687.598 196.945 661.052C182.126 634.506 176.582 593.162 145.11 578.982" fill="#F10065"/>
<mask id="mask3_387_470" style="mask-type:luminance" maskUnits="userSpaceOnUse" x="77" y="545" width="250" height="230">
<path d="M99.9522 545.635C99.9522 545.635 77.7344 570.367 77.7344 596.233C77.7344 622.099 92.5326 645.697 133.382 682.631C174.232 719.565 212.361 746.811 228.416 755.468C244.471 764.124 260.506 752.995 260.506 752.995C260.506 752.995 287.052 779.52 290.123 773.357C293.194 767.195 280.869 757.92 278.396 754.231C276.225 751.3 273.744 748.612 270.997 746.214C270.997 746.214 283.961 748.048 288.907 752.397C293.854 756.746 301.85 764.124 305.56 763.506C309.27 762.887 309.27 759.796 303.705 752.397C299.219 746.602 293.8 741.594 287.671 737.578C283.961 735.125 271.615 728.324 271.615 728.324C271.615 728.324 289.505 727.087 295.688 730.797C301.871 734.507 318.524 745.616 319.761 740.67C320.997 735.723 320.997 732.652 314.814 727.087C308.631 721.523 296.265 714.721 288.907 713.505C283.835 712.572 278.87 711.129 274.088 709.198C274.088 709.198 288.289 704.251 293.215 704.251C298.141 704.251 317.947 714.124 323.45 712.908C328.953 711.692 325.923 706.724 321.616 703.633C317.308 700.541 298.161 693.142 290.123 692.524C282.085 691.906 237.052 707.343 231.508 707.343C225.963 707.343 211.763 687.598 196.944 661.052C182.125 634.506 176.581 593.162 145.109 578.982" fill="white"/>
</mask>
<g mask="url(#mask3_387_470)">
<g opacity="0.2">
<path d="M97.2109 632.692C98.056 632.692 101.147 634.753 97.2109 640.751C101.147 634.794 98.056 632.692 97.2109 632.692Z" fill="black"/>
<path d="M146.675 607.96C145.83 607.96 142.738 610.021 146.675 616.019C150.611 610.062 147.52 607.96 146.675 607.96Z" fill="black"/>
<path d="M106.32 588.463C105.887 587.721 102.507 586.113 99.3535 592.585C106.485 592.914 106.753 589.184 106.32 588.463Z" fill="black"/>
<path d="M105.619 640.38C105.825 640.158 105.998 639.908 106.134 639.638C106.335 639.401 106.458 639.108 106.485 638.798C106.513 638.489 106.444 638.178 106.288 637.91C106.133 637.641 105.897 637.427 105.615 637.297C105.333 637.168 105.017 637.128 104.712 637.185C103.81 637.167 102.932 637.474 102.239 638.051C101.819 638.383 101.432 638.756 101.085 639.164C100.671 639.661 100.298 640.192 99.9717 640.751H105.207C105.353 640.638 105.491 640.514 105.619 640.38Z" fill="black"/>
<path d="M155.785 613.195C155.352 612.453 151.972 610.845 148.818 617.317C155.95 617.647 156.197 613.916 155.785 613.195Z" fill="black"/>
<path d="M144.531 617.255C141.378 610.845 137.998 612.453 137.565 613.133C137.132 613.813 137.421 617.647 144.531 617.255Z" fill="black"/>
<path d="M97.2109 583.228V591.286C101.147 585.33 98.056 583.228 97.2109 583.228Z" fill="black"/>
<path d="M97.2109 632.692V640.751C101.147 634.794 98.056 632.692 97.2109 632.692Z" fill="black"/>
<path d="M196.14 731.621C195.775 731.697 195.434 731.863 195.149 732.104C194.865 732.345 194.646 732.654 194.512 733.002L197.995 735.558C198.51 732.714 196.758 731.621 196.14 731.621Z" fill="black"/>
<path d="M245.604 756.354C245.084 756.481 244.62 756.773 244.278 757.185C243.937 757.596 243.737 758.107 243.708 758.642C244.946 758.544 246.177 758.379 247.397 758.147C247.299 757.709 247.078 757.308 246.761 756.99C246.443 756.673 246.042 756.452 245.604 756.354Z" fill="black"/>
<path d="M196.139 682.157C195.294 682.157 192.203 684.218 196.139 690.216C200.076 684.259 196.984 682.157 196.139 682.157Z" fill="black"/>
<path d="M245.605 714.948C249.541 708.991 246.45 706.889 245.605 706.889C244.76 706.889 241.647 708.991 245.605 714.948Z" fill="black"/>
<path d="M146.676 665.483C150.612 659.527 147.521 657.424 146.676 657.424C145.831 657.424 142.719 659.527 146.676 665.483Z" fill="black"/>
<path d="M205.249 736.857C204.92 736.3 202.941 735.249 200.653 737.454C201.766 738.279 202.879 739.062 203.972 739.824C204.489 739.547 204.896 739.102 205.128 738.563C205.36 738.025 205.403 737.423 205.249 736.857Z" fill="black"/>
<path d="M198.366 691.452C205.477 691.844 205.745 688.113 205.332 687.33C204.92 686.547 201.437 685.042 198.366 691.452Z" fill="black"/>
<path d="M247.83 716.184C254.941 716.576 255.209 712.845 254.796 712.062C254.384 711.279 250.901 709.774 247.83 716.184Z" fill="black"/>
<path d="M148.902 666.72C156.033 667.111 156.281 663.381 155.869 662.598C155.456 661.814 151.973 660.31 148.902 666.72Z" fill="black"/>
<path d="M292.204 740.937C290.431 739.536 288.803 738.402 287.566 737.557L286.124 736.65L285.959 736.857C285.547 737.557 285.814 741.04 292.204 740.937Z" fill="black"/>
<path d="M193.996 691.452C190.843 685.042 187.462 686.65 187.03 687.33C186.597 688.01 186.885 691.844 193.996 691.452Z" fill="black"/>
<path d="M236.496 712.124C236.064 712.846 236.352 716.576 243.463 716.246C240.309 709.775 236.929 711.382 236.496 712.124Z" fill="black"/>
<path d="M137.566 662.659C137.154 663.381 137.422 667.111 144.533 666.781C141.379 660.31 137.999 661.917 137.566 662.659Z" fill="black"/>
<path d="M105.25 640.751H100.015C100.021 640.792 100.021 640.834 100.015 640.875C99.8291 641.204 99.623 641.575 99.4375 641.988C101.46 642.278 103.52 641.839 105.25 640.751Z" fill="black"/>
<path d="M97.2107 583.228C96.3657 583.228 93.2742 585.289 97.2107 591.286V583.228Z" fill="black"/>
<path d="M97.211 640.751V632.692C96.366 632.692 93.2539 634.794 97.211 640.751Z" fill="black"/>
<path d="M95.0672 592.523C91.9138 586.113 88.5337 587.721 88.1009 588.401C87.6681 589.081 87.9567 592.914 95.0672 592.523Z" fill="black"/>
<path d="M93.2525 639.164C92.9049 638.756 92.5183 638.384 92.0984 638.051L91.9541 637.948C92.593 638.875 93.2319 639.823 94.0151 640.751H94.4685C94.109 640.188 93.7022 639.657 93.2525 639.164Z" fill="black"/>
<path d="M94.4905 640.875C94.4846 640.834 94.4846 640.792 94.4905 640.751H94.0371L94.944 641.988H95.1501C94.8821 641.575 94.676 641.204 94.4905 640.875Z" fill="black"/>
</g>
</g>
<path d="M99.9532 545.635C99.9532 545.635 77.7354 570.367 77.7354 596.233C77.7354 622.099 92.5335 645.697 133.383 682.631C174.233 719.565 212.362 746.811 228.417 755.468C244.472 764.124 260.507 752.995 260.507 752.995C260.507 752.995 287.053 779.52 290.124 773.357C293.195 767.195 280.87 757.92 278.397 754.231C276.226 751.3 273.745 748.612 270.998 746.214C270.998 746.214 283.962 748.048 288.908 752.397C293.855 756.746 301.851 764.124 305.561 763.506C309.271 762.887 309.271 759.796 303.706 752.397C299.22 746.602 293.801 741.594 287.672 737.578C283.962 735.125 271.616 728.324 271.616 728.324C271.616 728.324 289.506 727.087 295.689 730.797C301.872 734.507 318.525 745.616 319.762 740.67C320.998 735.723 320.998 732.652 314.815 727.087C308.632 721.523 296.266 714.721 288.908 713.505C283.836 712.572 278.871 711.129 274.089 709.198C274.089 709.198 288.29 704.251 293.216 704.251C298.142 704.251 317.948 714.124 323.451 712.908C328.954 711.692 325.924 706.724 321.617 703.633C317.309 700.541 298.162 693.142 290.124 692.524C282.086 691.906 237.053 707.343 231.509 707.343C225.964 707.343 211.764 687.598 196.945 661.052C182.126 634.506 176.582 593.162 145.11 578.982" stroke="#263238" stroke-linecap="round" stroke-linejoin="round"/>
<path d="M321.513 703.612C317.185 700.541 298.058 693.121 290.02 692.503C281.982 691.885 236.949 707.322 231.405 707.322C225.86 707.322 211.66 687.577 196.841 661.031C188.597 646.295 183.238 626.983 174.685 610.309C129.342 604.126 109.907 630.631 100.921 649.696C110.926 661.428 121.738 672.447 133.279 682.672C174.005 719.771 212.258 746.852 228.313 755.509C244.368 764.165 260.403 753.036 260.403 753.036C260.403 753.036 286.949 779.561 290.02 773.398C293.091 767.236 280.766 757.961 278.293 754.272C276.122 751.341 273.641 748.653 270.894 746.255C270.894 746.255 283.858 748.089 288.804 752.438C293.751 756.787 301.747 764.165 305.457 763.547C309.167 762.928 309.167 759.837 303.602 752.438C299.116 746.643 293.697 741.635 287.568 737.619C283.858 735.166 271.512 728.365 271.512 728.365C271.512 728.365 289.402 727.128 295.585 730.838C301.768 734.548 318.421 745.657 319.658 740.711C320.894 735.764 320.894 732.693 314.711 727.128C308.528 721.564 296.162 714.762 288.804 713.546C283.732 712.613 278.767 711.17 273.985 709.239C273.985 709.239 288.186 704.292 293.112 704.292C298.038 704.292 317.844 714.165 323.347 712.949C328.85 711.733 325.82 706.704 321.513 703.612Z" fill="#FFAD72" stroke="#263238" stroke-linecap="round" stroke-linejoin="round"/>
<path d="M589.468 568.8C584.316 557.032 588.726 531.269 593.879 494.48C599.031 457.69 604.184 420.159 604.184 400.291C604.184 380.423 607.461 352.887 600.989 344.004C594.518 335.121 570.96 311.028 569.208 299.857C567.456 288.686 583.326 271.6 583.326 271.6C583.326 271.6 588.046 262.758 592.168 267.478C596.29 272.198 594.518 278.072 592.168 286.316C589.819 294.56 587.448 301.032 587.448 301.032C587.448 301.032 608.059 307.503 613.356 303.979C618.652 300.455 618.178 280.298 617.807 270.426C617.045 251.176 609.337 259.399 603.998 268.509C601.422 272.878 586.335 270.281 595.157 259.09C603.978 247.898 612.181 238.026 620.425 246.868C628.669 255.71 634.543 272.775 634.543 272.775C634.543 272.775 640.437 244.724 645.796 228.236C651.155 211.748 660.759 205.215 664.222 206.369C667.684 207.523 667.293 213.273 663.83 221.332C660.368 229.39 652.701 251.629 650.784 258.925C648.867 266.221 648.496 274.651 652.33 273.888C656.163 273.125 669.58 249.712 673.434 239.737C677.289 229.761 683.018 220.569 689.531 216.344C696.044 212.119 701.423 217.498 698.744 224.403C693.422 236.889 687.38 249.056 680.648 260.842C676.417 268.459 672.825 276.414 669.91 284.626C676.229 277.894 682.888 271.489 689.861 265.438C699.074 257.771 709.049 256.246 712.099 258.925C715.15 261.604 712.491 261.996 704.824 268.138C697.157 274.28 685.698 281.596 676.526 296.518C669.423 307.46 663.874 319.335 660.038 331.803C657.187 339.987 653.455 347.838 648.908 355.216C648.908 355.216 656.101 413.626 668.57 445.757C681.04 477.889 703.093 524.88 696.374 558.454C689.655 592.028 676.711 609.279 658.492 614.555C653.21 616.098 647.639 616.381 642.227 615.382C636.816 614.384 631.713 612.131 627.329 608.805" fill="#F10065"/>
<mask id="mask4_387_470" style="mask-type:luminance" maskUnits="userSpaceOnUse" x="569" y="206" width="145" height="410">
<path d="M589.467 568.8C584.315 557.032 588.725 531.269 593.878 494.48C599.03 457.69 604.183 420.159 604.183 400.291C604.183 380.423 607.46 352.887 600.988 344.004C594.517 335.121 570.959 311.028 569.207 299.857C567.455 288.686 583.325 271.6 583.325 271.6C583.325 271.6 588.045 262.758 592.167 267.478C596.289 272.198 594.517 278.072 592.167 286.316C589.818 294.56 587.447 301.032 587.447 301.032C587.447 301.032 608.058 307.503 613.355 303.979C618.651 300.455 618.177 280.298 617.806 270.426C617.044 251.176 609.336 259.399 603.997 268.509C601.421 272.878 586.334 270.281 595.156 259.09C603.977 247.898 612.18 238.026 620.424 246.868C628.668 255.71 634.542 272.775 634.542 272.775C634.542 272.775 640.436 244.724 645.795 228.236C651.154 211.748 660.758 205.215 664.221 206.369C667.683 207.523 667.292 213.273 663.829 221.332C660.367 229.39 652.7 251.629 650.783 258.925C648.866 266.221 648.495 274.651 652.329 273.888C656.162 273.125 669.579 249.712 673.433 239.737C677.288 229.761 683.017 220.569 689.53 216.344C696.043 212.119 701.422 217.498 698.743 224.403C693.421 236.889 687.379 249.056 680.647 260.842C676.416 268.459 672.824 276.414 669.909 284.626C676.228 277.894 682.887 271.489 689.86 265.438C699.073 257.771 709.048 256.246 712.098 258.925C715.149 261.604 712.49 261.996 704.823 268.138C697.156 274.28 685.697 281.596 676.525 296.518C669.422 307.46 663.873 319.335 660.037 331.803C657.186 339.987 653.454 347.838 648.907 355.216C648.907 355.216 656.1 413.626 668.569 445.757C681.039 477.889 703.092 524.88 696.373 558.454C689.654 592.028 676.711 609.279 658.491 614.555C653.209 616.098 647.638 616.381 642.226 615.382C636.815 614.384 631.712 612.131 627.328 608.805" fill="white"/>
</mask>
<g mask="url(#mask4_387_470)">
<g opacity="0.2">
<path d="M690.787 236.975C691.158 237.056 691.504 237.229 691.792 237.477C692.079 237.726 692.301 238.042 692.436 238.397C692.306 238.039 692.086 237.72 691.797 237.471C691.509 237.222 691.161 237.051 690.787 236.975Z" fill="black"/>
<path d="M690.787 236.975V241.798L692.436 238.397C692.301 238.042 692.079 237.726 691.792 237.477C691.504 237.229 691.158 237.056 690.787 236.975Z" fill="black"/>
<path d="M697.525 542.522C697.525 541.148 697.463 539.774 697.339 538.4C696.062 538.73 694.454 539.946 692.929 543.079C694.483 543.215 696.048 543.026 697.525 542.522Z" fill="black"/>
<path d="M690.787 533.763V541.822C694.724 535.865 691.632 533.763 690.787 533.763Z" fill="black"/>
<path d="M591.858 286.44C591.137 286.44 588.869 287.944 590.477 291.922C590.992 290.253 591.549 288.418 592.105 286.481L591.858 286.44Z" fill="black"/>
<path d="M641.32 319.23C645.257 313.274 642.165 311.172 641.32 311.172C640.475 311.172 637.363 313.274 641.32 319.23Z" fill="black"/>
<path d="M689.92 243.55L690.786 241.798V236.975C690.003 236.975 687.385 238.748 689.92 243.55Z" fill="black"/>
<path d="M641.322 261.707C640.477 261.707 637.386 263.768 641.322 269.766C645.259 263.809 642.167 261.707 641.322 261.707Z" fill="black"/>
<path d="M600.822 342.85C600.968 342.592 601.056 342.306 601.081 342.01C601.106 341.715 601.067 341.418 600.967 341.139C600.775 340.909 600.536 340.724 600.265 340.596C599.995 340.468 599.699 340.4 599.4 340.397C599.016 340.387 598.632 340.443 598.267 340.562C599.112 341.593 599.874 342.52 600.492 343.345C600.623 343.195 600.734 343.029 600.822 342.85Z" fill="black"/>
<path d="M650.431 316.407C649.998 315.665 646.618 314.058 643.465 320.529C650.575 320.859 650.843 317.129 650.431 316.407Z" fill="black"/>
<path d="M649.422 269.725C649.341 268.593 649.341 267.456 649.422 266.324C648.102 265.912 645.691 266.324 643.403 271.003C645.499 271.342 647.645 270.886 649.422 269.725Z" fill="black"/>
<path d="M650.493 217.705C649.937 218.632 649.422 219.642 648.886 220.693C649.441 220.436 649.899 220.006 650.189 219.467C650.479 218.928 650.585 218.31 650.493 217.705Z" fill="black"/>
<path d="M582.747 291.675C582.335 292.376 582.603 295.962 589.26 295.797L589.446 295.261C586.375 289.449 583.18 290.954 582.747 291.675Z" fill="black"/>
<path d="M632.212 316.407C631.779 317.129 632.068 320.859 639.179 320.529C636.025 314.058 632.645 315.665 632.212 316.407Z" fill="black"/>
<path d="M681.676 242.21C681.264 242.931 681.532 246.641 688.56 246.332C685.468 239.881 682.109 241.468 681.676 242.21Z" fill="black"/>
<path d="M639.178 271.003C638.469 269.345 637.313 267.918 635.839 266.881C635.509 268.426 635.221 269.725 635.015 270.714C636.375 271.052 637.784 271.15 639.178 271.003Z" fill="black"/>
<path d="M633.469 269.91C633.139 269.045 632.727 268.035 632.253 266.901C632.087 267.466 632.117 268.071 632.338 268.617C632.559 269.163 632.957 269.619 633.469 269.91Z" fill="black"/>
<path d="M641.32 467.625C645.257 461.668 642.165 459.566 641.32 459.566C640.475 459.566 637.363 461.668 641.32 467.625Z" fill="black"/>
<path d="M641.322 410.101C640.477 410.101 637.386 412.162 641.322 418.16C645.259 412.204 642.167 410.101 641.322 410.101Z" fill="black"/>
<path d="M641.322 360.637C640.477 360.637 637.386 362.698 641.322 368.695C645.259 362.739 642.167 360.637 641.322 360.637Z" fill="black"/>
<path d="M601.05 440.295C601.05 440.728 600.947 441.182 600.885 441.614C601.07 441.201 601.128 440.742 601.05 440.295Z" fill="black"/>
<path d="M600.967 489.533C600.555 488.833 597.607 487.472 594.66 492.357H599.895C600.351 492.061 600.7 491.628 600.893 491.12C601.085 490.613 601.111 490.057 600.967 489.533Z" fill="black"/>
<path d="M643.547 468.861C650.657 469.253 650.925 465.523 650.513 464.739C650.101 463.956 646.618 462.452 643.547 468.861Z" fill="black"/>
<path d="M650.431 415.336C649.998 414.594 646.618 412.987 643.465 419.458C650.575 419.788 650.843 416.058 650.431 415.336Z" fill="black"/>
<path d="M643.547 369.932C648.782 370.22 650.307 368.283 650.575 366.943L650.39 365.727C649.606 364.965 646.432 363.893 643.547 369.932Z" fill="black"/>
<path d="M685.614 489.574C683.553 488.152 681.966 489.018 681.677 489.574C681.533 490.098 681.559 490.654 681.751 491.161C681.944 491.669 682.293 492.102 682.749 492.398H686.582L685.614 489.574Z" fill="black"/>
<path d="M632.212 464.801C631.779 465.522 632.068 469.253 639.179 468.923C636.025 462.451 632.645 464.059 632.212 464.801Z" fill="black"/>
<path d="M632.212 415.336C631.779 416.058 632.068 419.788 639.179 419.458C636.025 412.987 632.645 414.594 632.212 415.336Z" fill="black"/>
<path d="M632.212 365.872C631.779 366.593 632.068 370.323 639.179 369.994C636.025 363.522 632.645 365.13 632.212 365.872Z" fill="black"/>
<path d="M641.322 607.96C640.518 607.96 637.715 609.856 640.745 615.091L641.775 615.297C644.99 609.897 642.126 607.96 641.322 607.96Z" fill="black"/>
<path d="M591.857 541.822C595.793 535.865 592.702 533.763 591.857 533.763C591.012 533.763 587.899 535.865 591.857 541.822Z" fill="black"/>
<path d="M690.786 533.763C689.941 533.763 686.849 535.824 690.786 541.822V533.763Z" fill="black"/>
<path d="M641.32 566.554C645.257 560.598 642.165 558.495 641.32 558.495C640.475 558.495 637.363 560.598 641.32 566.554Z" fill="black"/>
<path d="M641.322 509.031C640.477 509.031 637.386 511.092 641.322 517.089C645.259 511.133 642.167 509.031 641.322 509.031Z" fill="black"/>
<path d="M650.43 613.195C650.039 612.515 647.215 611.134 644.247 615.689C645.942 615.906 647.65 615.995 649.358 615.957C649.804 615.667 650.147 615.244 650.34 614.749C650.532 614.253 650.564 613.71 650.43 613.195Z" fill="black"/>
<path d="M594.083 543.058C601.194 543.45 601.461 539.719 601.049 538.936C600.637 538.153 597.154 536.649 594.083 543.058Z" fill="black"/>
<path d="M643.547 567.791C650.657 568.182 650.925 564.452 650.513 563.669C650.101 562.885 646.618 561.381 643.547 567.791Z" fill="black"/>
<path d="M650.431 514.266C649.998 513.524 646.618 511.916 643.465 518.388C650.575 518.717 650.843 514.987 650.431 514.266Z" fill="black"/>
<path d="M681.676 588.463C681.346 589.019 681.449 591.348 684.747 592.214C685.304 591.225 685.86 590.153 686.375 589.184C684.046 586.835 682.006 587.886 681.676 588.463Z" fill="black"/>
<path d="M633.387 612.515C634.563 613.07 635.767 613.566 636.994 613.999C636.574 613.458 636.021 613.036 635.388 612.776C634.755 612.516 634.065 612.425 633.387 612.515Z" fill="black"/>
<path d="M589.712 543.058C589.238 542.016 588.62 541.045 587.878 540.173C587.878 541.142 587.713 542.09 587.651 543.038C588.337 543.087 589.026 543.093 589.712 543.058Z" fill="black"/>
<path d="M688.642 543.058C685.489 536.648 682.109 538.256 681.676 538.936C681.243 539.616 681.532 543.45 688.642 543.058Z" fill="black"/>
<path d="M632.212 563.73C631.779 564.452 632.068 568.182 639.179 567.853C636.025 561.381 632.645 562.988 632.212 563.73Z" fill="black"/>
<path d="M632.212 514.266C631.779 514.987 632.068 518.717 639.179 518.388C636.025 511.916 632.645 513.524 632.212 514.266Z" fill="black"/>
<path d="M594.661 492.357C594.434 492.728 594.228 493.14 594.001 493.573C596.051 493.883 598.143 493.444 599.896 492.336H594.661V492.357Z" fill="black"/>
<path d="M686.583 492.357H682.708C683.968 493.202 685.458 493.634 686.974 493.594L686.583 492.357Z" fill="black"/>
</g>
</g>
<path d="M589.468 568.8C584.316 557.032 588.726 531.269 593.879 494.48C599.031 457.69 604.184 420.159 604.184 400.291C604.184 380.423 607.461 352.887 600.989 344.004C594.518 335.121 570.96 311.028 569.208 299.857C567.456 288.686 583.326 271.6 583.326 271.6C583.326 271.6 588.046 262.758 592.168 267.478C596.29 272.198 594.518 278.072 592.168 286.316C589.819 294.56 587.448 301.032 587.448 301.032C587.448 301.032 608.059 307.503 613.356 303.979C618.652 300.455 618.178 280.298 617.807 270.426C617.045 251.176 609.337 259.399 603.998 268.509C601.422 272.878 586.335 270.281 595.157 259.09C603.978 247.898 612.181 238.026 620.425 246.868C628.669 255.71 634.543 272.775 634.543 272.775C634.543 272.775 640.437 244.724 645.796 228.236C651.155 211.748 660.759 205.215 664.222 206.369C667.684 207.523 667.293 213.273 663.83 221.332C660.368 229.39 652.701 251.629 650.784 258.925C648.867 266.221 648.496 274.651 652.33 273.888C656.163 273.125 669.58 249.712 673.434 239.737C677.289 229.761 683.018 220.569 689.531 216.344C696.044 212.119 701.423 217.498 698.744 224.403C693.422 236.889 687.38 249.056 680.648 260.842C676.417 268.459 672.825 276.414 669.91 284.626C676.229 277.894 682.888 271.489 689.861 265.438C699.074 257.771 709.049 256.246 712.099 258.925C715.15 261.604 712.491 261.996 704.824 268.138C697.157 274.28 685.698 281.596 676.526 296.518C669.423 307.46 663.874 319.335 660.038 331.803C657.187 339.987 653.455 347.838 648.908 355.216C648.908 355.216 656.101 413.626 668.57 445.757C681.04 477.889 703.093 524.88 696.374 558.454C689.655 592.028 676.711 609.279 658.492 614.555C653.21 616.098 647.639 616.381 642.227 615.382C636.816 614.384 631.713 612.131 627.329 608.805" stroke="#263238" stroke-linecap="round" stroke-linejoin="round"/>
<path d="M676.524 296.518C685.737 281.555 697.258 274.259 704.925 268.138C712.592 262.016 715.23 261.604 712.201 258.925C709.171 256.245 699.175 257.771 689.962 265.438C682.989 271.489 676.33 277.893 670.011 284.626C672.893 276.418 676.451 268.462 680.646 260.842C687.357 249.054 693.378 236.887 698.68 224.403C701.36 217.498 696.001 212.036 689.468 216.344C682.934 220.652 677.204 229.761 673.371 239.737C669.537 249.712 656.1 273.125 652.266 273.888C648.433 274.65 648.804 266.2 650.72 258.925C652.637 251.649 660.325 229.39 663.767 221.332C667.208 213.273 667.6 207.523 664.158 206.369C660.716 205.214 651.112 211.727 645.733 228.236C640.353 244.745 634.479 272.775 634.479 272.775C634.479 272.775 628.605 255.689 620.361 246.868C612.117 238.047 603.873 247.898 595.093 259.09C586.313 270.281 601.276 272.878 603.935 268.509C609.273 259.399 616.981 251.175 617.744 270.425C618.115 280.298 618.589 300.434 613.292 303.979C607.995 307.524 587.385 301.032 587.385 301.032C587.385 301.032 589.735 294.56 592.105 286.316C594.475 278.072 596.227 272.177 592.105 267.478C587.983 262.779 583.263 271.6 583.263 271.6C583.263 271.6 567.372 288.665 569.145 299.857C570.917 311.048 594.454 335.162 600.926 344.004C607.398 352.846 604.12 380.422 604.12 400.291C604.12 420.159 598.968 457.69 593.815 494.48C593.815 494.974 593.671 495.428 593.609 495.902C601.75 504.455 618.342 516.718 646.392 515.77C665.189 515.131 678.503 505.671 687.51 495.263C681.533 477.476 674.03 460.225 668.466 445.798C655.997 413.667 648.804 355.257 648.804 355.257C653.35 347.879 657.082 340.028 659.933 331.844C663.798 319.356 669.382 307.467 676.524 296.518Z" fill="#FFAD72" stroke="#263238" stroke-linecap="round" stroke-linejoin="round"/>
<path d="M620.093 352.908C620.093 352.908 616.651 338.336 621.639 329.124C624.262 323.885 628.585 319.692 633.902 317.231" stroke="#263238" stroke-linecap="round" stroke-linejoin="round"/>
</svg>
