<svg width="28" height="34" viewBox="0 0 28 34" fill="none" xmlns="http://www.w3.org/2000/svg">
    <path
        d="M0.622009 8.98066L26.9215 0.0381466C27.0667 -0.0111991 27.2202 -0.0126969 27.3661 0.0338077C27.512 0.0803124 27.6451 0.173142 27.7516 0.30276C27.8582 0.432379 27.9344 0.594113 27.9725 0.771345C28.0106 0.948578 28.0091 1.13492 27.9682 1.31123L20.6053 33.2435C20.5585 33.4489 20.4605 33.6316 20.3246 33.7666C20.1888 33.9016 20.0219 33.9822 19.8469 33.9974C19.6718 34.0125 19.4971 33.9615 19.3469 33.8512C19.1967 33.741 19.0783 33.577 19.008 33.3817L13.4888 18.1501C13.4036 17.9135 13.2484 17.7243 13.0538 17.6199L0.509857 10.9181C0.349016 10.8329 0.213851 10.6893 0.122931 10.5071C0.0320106 10.3248 -0.0102039 10.1129 0.0020871 9.90029C0.0143781 9.68773 0.0805711 9.48501 0.191573 9.31997C0.302575 9.15493 0.452939 9.03774 0.622009 8.98066Z"
        fill="#000" />
</svg>