<svg width="257" height="257" viewBox="0 0 257 257" fill="none" xmlns="http://www.w3.org/2000/svg">
<path d="M155.969 18.625C153.54 18.625 151.211 17.6603 149.494 15.9432C147.777 14.2261 146.812 11.8971 146.812 9.46875C146.812 7.04036 147.777 4.71143 149.494 2.9943C151.211 1.27717 153.54 0.3125 155.969 0.3125H247.531C249.96 0.3125 252.289 1.27717 254.006 2.9943C255.723 4.71143 256.687 7.04036 256.687 9.46875V101.031C256.687 103.46 255.723 105.789 254.006 107.506C252.289 109.223 249.96 110.188 247.531 110.188C245.103 110.188 242.774 109.223 241.057 107.506C239.34 105.789 238.375 103.46 238.375 101.031V31.5719L162.763 107.184C177.629 125.372 184.936 148.578 183.173 172.002C181.411 195.426 170.713 217.277 153.292 233.035C135.871 248.793 113.06 257.253 89.5769 256.665C66.0938 256.077 43.735 246.486 27.1247 229.875C10.5145 213.265 0.923463 190.906 0.33537 167.423C-0.252724 143.94 8.20707 121.129 23.9651 103.708C39.7231 86.2874 61.5738 75.5893 84.998 73.8265C108.422 72.0637 131.628 79.3711 149.816 94.2373L225.428 18.625H155.969ZM91.875 91.875C72.4479 91.875 53.8164 99.5924 40.0794 113.329C26.3424 127.066 18.625 145.698 18.625 165.125C18.625 184.552 26.3424 203.184 40.0794 216.921C53.8164 230.658 72.4479 238.375 91.875 238.375C111.302 238.375 129.934 230.658 143.671 216.921C157.408 203.184 165.125 184.552 165.125 165.125C165.125 145.698 157.408 127.066 143.671 113.329C129.934 99.5924 111.302 91.875 91.875 91.875Z" />
</svg>
