<svg width="54" height="54" viewBox="0 0 54 54" fill="none" xmlns="http://www.w3.org/2000/svg">
    <path
        d="M23.8285 26.6875C23.8285 27.4459 24.1297 28.1731 24.666 28.7094C25.2022 29.2456 25.9295 29.5469 26.6878 29.5469C27.4462 29.5469 28.1735 29.2456 28.7097 28.7094C29.246 28.1731 29.5472 27.4459 29.5472 26.6875C29.5472 25.9291 29.246 25.2019 28.7097 24.6656C28.1735 24.1294 27.4462 23.8281 26.6878 23.8281C25.9295 23.8281 25.2022 24.1294 24.666 24.6656C24.1297 25.2019 23.8285 25.9291 23.8285 26.6875ZM35.7425 26.6875C35.7425 27.4459 36.0438 28.1731 36.58 28.7094C37.1163 29.2456 37.8435 29.5469 38.6019 29.5469C39.3603 29.5469 40.0875 29.2456 40.6238 28.7094C41.16 28.1731 41.4613 27.4459 41.4613 26.6875C41.4613 25.9291 41.16 25.2019 40.6238 24.6656C40.0875 24.1294 39.3603 23.8281 38.6019 23.8281C37.8435 23.8281 37.1163 24.1294 36.58 24.6656C36.0438 25.2019 35.7425 25.9291 35.7425 26.6875ZM11.9144 26.6875C11.9144 27.4459 12.2157 28.1731 12.7519 28.7094C13.2881 29.2456 14.0154 29.5469 14.7738 29.5469C15.5321 29.5469 16.2594 29.2456 16.7957 28.7094C17.3319 28.1731 17.6332 27.4459 17.6332 26.6875C17.6332 25.9291 17.3319 25.2019 16.7957 24.6656C16.2594 24.1294 15.5321 23.8281 14.7738 23.8281C14.0154 23.8281 13.2881 24.1294 12.7519 24.6656C12.2157 25.2019 11.9144 25.9291 11.9144 26.6875ZM51.3023 16.3461C49.956 13.1472 48.0259 10.2759 45.5657 7.80967C43.1226 5.35773 40.2224 3.40874 37.0292 2.07305C33.7529 0.696973 30.274 0 26.6878 0H26.5687C22.9587 0.0178711 19.462 0.732715 16.1737 2.13857C13.0079 3.48797 10.1348 5.44042 7.71469 7.88711C5.27827 10.3474 3.36606 13.2067 2.0436 16.3938C0.673483 19.6939 -0.0175331 23.2026 0.000337958 26.8126C0.0205517 30.9496 0.999283 35.0256 2.85971 38.7207V47.7754C2.85971 48.5021 3.14842 49.1991 3.66231 49.713C4.1762 50.2269 4.87319 50.5156 5.59995 50.5156H14.6606C18.3557 52.3761 22.4317 53.3548 26.5687 53.375H26.6938C30.2621 53.375 33.7231 52.684 36.9816 51.3317C40.1586 50.012 43.048 48.0857 45.4882 45.6606C47.9485 43.2242 49.8845 40.3768 51.2368 37.2017C52.6426 33.9134 53.3575 30.4166 53.3753 26.8066C53.3932 23.1788 52.6903 19.6582 51.3023 16.3461ZM42.3012 42.4379C38.1253 46.5721 32.5853 48.8477 26.6878 48.8477H26.5866C22.9945 48.8298 19.4262 47.9362 16.2749 46.2563L15.7746 45.9883H7.38706V37.6008L7.11899 37.1004C5.43911 33.9491 4.54555 30.3809 4.52768 26.7888C4.50385 20.8496 6.77348 15.2738 10.9374 11.0741C15.0955 6.87441 20.6534 4.55117 26.5925 4.52734H26.6938C29.6723 4.52734 32.5615 5.10518 35.2838 6.24893C37.9407 7.36289 40.3235 8.96533 42.3727 11.0146C44.416 13.0578 46.0244 15.4466 47.1383 18.1034C48.294 20.8556 48.8718 23.7745 48.8599 26.7888C48.8242 32.722 46.495 38.2799 42.3012 42.4379Z"
        fill="#000" />
</svg>