<svg width="56" height="61" viewBox="0 0 56 61" fill="none" xmlns="http://www.w3.org/2000/svg">
    <path
        d="M44.9048 29.1905V12.8188C44.9049 12.6121 44.8643 12.4073 44.7852 12.2163C44.7061 12.0253 44.5901 11.8518 44.4438 11.7057L36.1991 3.46095C35.9046 3.16617 35.5052 3.00037 35.0886 3H4.57143C4.15466 3 3.75496 3.16556 3.46026 3.46026C3.16556 3.75496 3 4.15466 3 4.57143V53.8095C3 54.2263 3.16556 54.626 3.46026 54.9207C3.75496 55.2154 4.15466 55.381 4.57143 55.381H26.5714M13.4762 23.9524H34.4286M13.4762 13.4762H23.9524M13.4762 34.4286H21.3333"
        stroke="#000" stroke-width="5" stroke-linecap="round" stroke-linejoin="round" />
    <path
        d="M34.4292 3V11.9048C34.4292 12.3215 34.5948 12.7212 34.8895 13.0159C35.1842 13.3106 35.5839 13.4762 36.0006 13.4762H44.9054M44.8844 37.375L51.5787 39.0748C52.2754 39.2529 52.7652 39.8867 52.7442 40.6043C52.2937 55.6848 43.5959 58 43.5959 58C43.5959 58 34.898 55.6848 34.4475 40.6043C34.4394 40.2549 34.5504 39.9132 34.7622 39.6353C34.974 39.3573 35.274 39.1597 35.613 39.0748L42.3073 37.375C43.1532 37.1602 44.0385 37.1602 44.8844 37.375Z"
        stroke="#000" stroke-width="5" stroke-linecap="round" stroke-linejoin="round" />
</svg>