<svg width="53" height="53" viewBox="0 0 53 53" fill="none" xmlns="http://www.w3.org/2000/svg">
    <path
        d="M35.125 52.375H29.375V46.625H35.125V52.375ZM29.375 32.25H23.625V46.625H29.375V32.25ZM52.375 26.5H46.625V38H52.375V26.5ZM46.625 20.75H40.875V26.5H46.625V20.75ZM12.125 26.5H6.375V32.25H12.125V26.5ZM6.375 20.75H0.625V26.5H6.375V20.75ZM26.5 6.375H32.25V0.625H26.5V6.375ZM4.9375 4.9375V13.5625H13.5625V4.9375H4.9375ZM17.875 17.875H0.625V0.625H17.875V17.875ZM4.9375 39.4375V48.0625H13.5625V39.4375H4.9375ZM17.875 52.375H0.625V35.125H17.875V52.375ZM39.4375 4.9375V13.5625H48.0625V4.9375H39.4375ZM52.375 17.875H35.125V0.625H52.375V17.875ZM46.625 46.625V38H35.125V43.75H40.875V52.375H52.375V46.625H46.625ZM40.875 26.5H29.375V32.25H40.875V26.5ZM29.375 20.75H12.125V26.5H17.875V32.25H23.625V26.5H29.375V20.75ZM32.25 17.875V12.125H26.5V6.375H20.75V17.875H32.25ZM11.4062 7.09375H7.09375V11.4062H11.4062V7.09375ZM11.4062 41.5938H7.09375V45.9062H11.4062V41.5938ZM45.9062 7.09375H41.5938V11.4062H45.9062V7.09375Z"
        fill="#000" />
</svg>