<svg width="30" height="23" viewBox="0 0 30 23" fill="none" xmlns="http://www.w3.org/2000/svg">
<path d="M25.3367 0.733286C25.8551 0.257752 26.545 -0.00514188 27.2608 7.62187e-05C27.9765 0.00529432 28.6622 0.278217 29.1731 0.761255C29.684 1.24429 29.9801 1.89966 29.999 2.58908C30.018 3.27849 29.7582 3.94803 29.2745 4.4564L14.5907 22.15C14.3382 22.4121 14.0335 22.6224 13.6947 22.7683C13.3559 22.9143 12.9901 22.9929 12.6191 22.9995C12.248 23.0062 11.8794 22.9406 11.5353 22.8069C11.1911 22.6731 10.8785 22.4738 10.6161 22.221L0.878482 12.8387C0.607303 12.5953 0.389799 12.3017 0.238943 11.9755C0.0880862 11.6492 0.00696837 11.2971 0.000429546 10.94C-0.00610928 10.5829 0.062065 10.2283 0.200884 9.89712C0.339703 9.56598 0.546323 9.26517 0.808418 9.01264C1.07051 8.76012 1.38271 8.56104 1.7264 8.42729C2.07008 8.29353 2.4382 8.22785 2.8088 8.23415C3.1794 8.24045 3.54489 8.3186 3.88346 8.46395C4.22203 8.60931 4.52675 8.81887 4.77944 9.08015L12.4857 16.5016L25.2668 0.811295C25.2898 0.783996 25.3144 0.757951 25.3404 0.733286H25.3367Z" fill="#0047FE"/>
</svg>
