<svg width="38" height="23" viewBox="0 0 38 23" fill="none" xmlns="http://www.w3.org/2000/svg">
    <path
        d="M33.3367 0.733286C33.8551 0.257752 34.545 -0.00514188 35.2608 7.62187e-05C35.9765 0.00529432 36.6622 0.278217 37.1731 0.761255C37.684 1.24429 37.9801 1.89966 37.999 2.58908C38.018 3.27849 37.7582 3.94802 37.2745 4.4564L22.5907 22.15C22.3382 22.4121 22.0335 22.6224 21.6947 22.7683C21.3559 22.9143 20.9901 22.9929 20.6191 22.9995C20.248 23.0062 19.8794 22.9406 19.5353 22.8069C19.1911 22.6731 18.8785 22.4738 18.6161 22.221L8.87848 12.8387C8.6073 12.5953 8.3898 12.3017 8.23894 11.9754C8.08809 11.6492 8.00697 11.2971 8.00043 10.94C7.99389 10.5829 8.06206 10.2283 8.20088 9.89712C8.3397 9.56598 8.54632 9.26517 8.80842 9.01264C9.07051 8.76011 9.38271 8.56104 9.7264 8.42728C10.0701 8.29353 10.4382 8.22785 10.8088 8.23415C11.1794 8.24045 11.5449 8.3186 11.8835 8.46395C12.222 8.6093 12.5267 8.81887 12.7794 9.08015L20.4857 16.5016L33.2668 0.811295C33.2898 0.783996 33.3144 0.757951 33.3404 0.733286H33.3367Z"
        fill="#A0B9FA" />
    <path
        d="M25.3367 0.733286C25.8551 0.257752 26.545 -0.00514188 27.2608 7.62187e-05C27.9765 0.00529432 28.6622 0.278217 29.1731 0.761255C29.684 1.24429 29.9801 1.89966 29.999 2.58908C30.018 3.27849 29.7582 3.94803 29.2745 4.4564L14.5907 22.15C14.3382 22.4121 14.0335 22.6224 13.6947 22.7683C13.3559 22.9143 12.9901 22.9929 12.6191 22.9995C12.248 23.0062 11.8794 22.9406 11.5353 22.8069C11.1911 22.6731 10.8785 22.4738 10.6161 22.221L0.878482 12.8387C0.607303 12.5953 0.389799 12.3017 0.238943 11.9755C0.0880862 11.6492 0.00696837 11.2971 0.000429546 10.94C-0.00610928 10.5829 0.062065 10.2283 0.200884 9.89712C0.339703 9.56598 0.546323 9.26517 0.808418 9.01264C1.07051 8.76012 1.38271 8.56104 1.7264 8.42729C2.07008 8.29353 2.4382 8.22785 2.8088 8.23415C3.1794 8.24045 3.54489 8.3186 3.88346 8.46395C4.22203 8.60931 4.52675 8.81887 4.77944 9.08015L12.4857 16.5016L25.2668 0.811295C25.2898 0.783996 25.3144 0.757951 25.3404 0.733286H25.3367Z"
        fill="#0047FE" />
</svg>