<svg width="49" height="45" viewBox="0 0 49 45" fill="none"
    xmlns="http://www.w3.org/2000/svg">
    <path d="M1.47194 0.904905C1.17604 1.19131 0.974176 1.56089 0.893118 1.96464C0.81206 2.36839 0.855635 2.78724 1.01807 3.16566L9.29122 22.4725L1.01663 41.7809C0.856451 42.1542 0.811888 42.567 0.888699 42.9659C0.965512 43.3648 1.16017 43.7315 1.44753 44.0186L1.47051 44.0416C1.76599 44.3279 2.14146 44.5178 2.54722 44.586C2.95297 44.6542 3.36988 44.5976 3.74275 44.4237L46.8321 24.3153C47.1832 24.1523 47.4804 23.8924 47.6888 23.5661C47.8971 23.2398 48.0079 22.8608 48.008 22.4737C48.0082 22.0866 47.8977 21.7075 47.6896 21.3811C47.4815 21.0546 47.1845 20.7945 46.8335 20.6312L3.74419 0.522846C3.37094 0.349049 2.95372 0.292659 2.54773 0.361136C2.14174 0.429613 1.7661 0.619733 1.47051 0.906341L1.47194 0.904905Z" fill="#000"/>
</svg>
