<svg width="109" height="109" viewBox="0 0 109 109" fill="none" xmlns="http://www.w3.org/2000/svg">
    <path
        d="M3 14.3735H25.747M105.362 14.3735H48.4941M3 54.1809H71.2411M105.362 54.1809H93.9882M3 93.9882H14.3735M105.362 93.9882H37.1206"
        stroke="#000" stroke-width="6" stroke-linecap="round" />
    <path
        d="M37.1206 25.747C43.402 25.747 48.4941 20.6549 48.4941 14.3735C48.4941 8.0921 43.402 3 37.1206 3C30.8392 3 25.7471 8.0921 25.7471 14.3735C25.7471 20.6549 30.8392 25.747 37.1206 25.747Z"
        stroke="#000" stroke-width="6" stroke-linecap="round" />
    <path
        d="M82.6138 65.5544C88.8952 65.5544 93.9873 60.4623 93.9873 54.1809C93.9873 47.8995 88.8952 42.8074 82.6138 42.8074C76.3323 42.8074 71.2402 47.8995 71.2402 54.1809C71.2402 60.4623 76.3323 65.5544 82.6138 65.5544Z"
        stroke="#000" stroke-width="6" stroke-linecap="round" />
    <path
        d="M25.7456 105.362C32.027 105.362 37.1191 100.27 37.1191 93.9883C37.1191 87.7068 32.027 82.6147 25.7456 82.6147C19.4642 82.6147 14.3721 87.7068 14.3721 93.9883C14.3721 100.27 19.4642 105.362 25.7456 105.362Z"
        stroke="#000" stroke-width="6" stroke-linecap="round" />
</svg>