<svg width="684" height="299" viewBox="0 0 684 299" fill="none" xmlns="http://www.w3.org/2000/svg">
    <path
        d="M352.999 204.267L435.399 254L413.533 160.267L486.333 97.2L390.466 89.0666L352.999 0.666626L315.533 89.0666L219.666 97.2L292.466 160.267L270.599 254L352.999 204.267Z"
        fill="#000" />
    <path
        d="M596.5 266.113L650.575 298.75L636.225 237.238L684 195.85L621.088 190.513L596.5 132.5L571.912 190.513L509 195.85L556.775 237.238L542.425 298.75L596.5 266.113Z"
        fill="#000" />
    <path
        d="M88 266.113L142.075 298.75L127.725 237.238L175.5 195.85L112.588 190.513L88 132.5L63.4125 190.513L0.5 195.85L48.275 237.238L33.925 298.75L88 266.113Z"
        fill="#000" />
</svg>