<svg width="54" height="57" viewBox="0 0 54 57" fill="none" xmlns="http://www.w3.org/2000/svg">
    <path
        d="M51.5065 46.3094C50.1617 43.124 48.2102 40.2306 45.7606 37.7903C43.3185 35.343 40.4256 33.3918 37.2416 32.0444C37.2131 32.0302 37.1846 32.023 37.156 32.0088C41.5974 28.8008 44.4846 23.5753 44.4846 17.6797C44.4846 7.91309 36.5715 0 26.8049 0C17.0383 0 9.12518 7.91309 9.12518 17.6797C9.12518 23.5753 12.0124 28.8008 16.4537 32.0159C16.4252 32.0302 16.3967 32.0373 16.3681 32.0516C13.1744 33.3989 10.3086 35.3309 7.8491 37.7975C5.40182 40.2396 3.4506 43.1325 2.10321 46.3165C0.779526 49.4336 0.0656354 52.7756 0.000178265 56.1615C-0.00172448 56.2376 0.011621 56.3133 0.0394288 56.3842C0.0672366 56.455 0.108944 56.5196 0.162093 56.574C0.215242 56.6285 0.278758 56.6718 0.348897 56.7014C0.419037 56.7309 0.494381 56.7461 0.570491 56.7461H4.84783C5.16151 56.7461 5.41102 56.4966 5.41815 56.19C5.56073 50.6865 7.77069 45.5323 11.6773 41.6257C15.7194 37.5836 21.0875 35.3594 26.8049 35.3594C32.5223 35.3594 37.8903 37.5836 41.9324 41.6257C45.8391 45.5323 48.049 50.6865 48.1916 56.19C48.1987 56.5037 48.4482 56.7461 48.7619 56.7461H53.0392C53.1154 56.7461 53.1907 56.7309 53.2608 56.7014C53.331 56.6718 53.3945 56.6285 53.4476 56.574C53.5008 56.5196 53.5425 56.455 53.5703 56.3842C53.5981 56.3133 53.6115 56.2376 53.6096 56.1615C53.5383 52.7539 52.8325 49.439 51.5065 46.3094ZM26.8049 29.9414C23.5327 29.9414 20.453 28.6653 18.1361 26.3484C15.8192 24.0315 14.5431 20.9519 14.5431 17.6797C14.5431 14.4075 15.8192 11.3278 18.1361 9.01094C20.453 6.69404 23.5327 5.41797 26.8049 5.41797C30.077 5.41797 33.1567 6.69404 35.4736 9.01094C37.7905 11.3278 39.0666 14.4075 39.0666 17.6797C39.0666 20.9519 37.7905 24.0315 35.4736 26.3484C33.1567 28.6653 30.077 29.9414 26.8049 29.9414Z"
        fill="#000" />
</svg>